M48
; DRILL file {KiCad 8.0.5-8.0.5-0~ubuntu22.04.1} date 2024-10-01T20:56:41-0700
; FORMAT={-:-/ absolute / inch / decimal}
; #@! TF.CreationDate,2024-10-01T20:56:41-07:00
; #@! TF.GenerationSoftware,Kicad,Pcbnew,8.0.5-8.0.5-0~ubuntu22.04.1
; #@! TF.FileFunction,Plated,1,4,PTH
FMAT,2
INCH
; #@! TA.AperFunction,Plated,PTH,ViaDrill
T1C0.0118
; #@! TA.AperFunction,Plated,PTH,ComponentDrill
T2C0.0300
; #@! TA.AperFunction,Plated,PTH,ComponentDrill
T3C0.0315
; #@! TA.AperFunction,Plated,PTH,ComponentDrill
T4C0.0354
; #@! TA.AperFunction,Plated,PTH,ComponentDrill
T5C0.0394
; #@! TA.AperFunction,Plated,PTH,ComponentDrill
T6C0.0433
; #@! TA.AperFunction,Plated,PTH,ComponentDrill
T7C0.0472
; #@! TA.AperFunction,Plated,PTH,ComponentDrill
T8C0.1260
%
G90
G05
T1
X0.7087Y-1.378
X0.9055Y-1.378
X1.4567Y-1.3386
X1.4567Y-1.4567
X2.7559Y-2.5984
X2.7559Y-2.6378
X2.7559Y-2.6772
X2.7559Y-2.7165
X2.7559Y-2.7559
X2.7559Y-2.7953
X2.7559Y-2.8346
X2.9921Y-2.5984
X3.0118Y-2.6378
X3.0315Y-2.6772
X3.0512Y-2.7165
X3.0709Y-2.7559
X3.0906Y-2.7953
X3.1102Y-2.8346
X3.3858Y-0.8661
X3.5039Y-0.8268
X3.6102Y-1.4764
X3.6102Y-1.7126
X3.7402Y-1.063
X3.7402Y-1.1811
X3.7402Y-1.2992
X3.7402Y-1.4173
X3.7402Y-1.5354
X3.7402Y-1.6535
X3.7402Y-1.7717
X3.9358Y-1.1429
X3.937Y-1.1024
X3.937Y-1.2598
X4.1142Y-1.063
X4.1142Y-1.1811
X4.1142Y-1.3189
X4.1142Y-1.4173
X4.1142Y-1.5551
X4.1142Y-1.6535
X4.1142Y-1.7717
X5.4331Y-1.2795
X5.4331Y-1.3189
X5.4331Y-1.3583
X5.4331Y-1.3976
X5.4331Y-1.437
X5.4331Y-1.4764
X5.4331Y-1.5157
T2
X1.6173Y-1.1929
X1.6173Y-2.2953
X1.9173Y-0.3913
X1.9173Y-1.4937
X2.0173Y-1.1913
X2.0173Y-2.2937
X2.1157Y-0.3913
X2.1157Y-1.4937
X2.4173Y-1.1929
X2.4173Y-2.2953
X2.4189Y-0.3929
X2.4189Y-1.4953
T3
X0.3228Y-2.7661
X0.3228Y-2.8921
X0.4213Y-2.7661
X0.4213Y-2.8921
X0.5197Y-2.7661
X0.5197Y-2.8921
X0.7874Y-2.6846
X0.7874Y-2.9846
X1.0827Y-1.8776
X1.0827Y-2.1776
X1.1811Y-2.7634
X1.1811Y-3.0634
X1.5748Y-2.7634
X1.5748Y-3.0634
X2.6654Y-0.5102
X2.6654Y-0.7071
X2.6654Y-1.0024
X2.6654Y-1.1992
X2.6654Y-1.5424
X2.6654Y-1.7392
X3.7476Y-2.0866
X4.0476Y-2.0866
X4.3579Y-0.8268
X4.4094Y-0.5512
X4.4094Y-0.6772
X4.5079Y-0.5512
X4.5079Y-0.6772
X4.6063Y-0.5512
X4.6063Y-0.6772
X4.6579Y-0.8268
T4
X1.1811Y-3.2465
X1.1811Y-3.3465
X1.5748Y-3.2465
X1.5748Y-3.3465
X4.9213Y-0.6299
X5.0213Y-0.6299
T5
X2.0866Y-2.7559
X2.0866Y-2.8559
X2.0866Y-2.9559
X2.0866Y-3.0559
X3.3661Y-2.4213
X3.3661Y-2.7165
X3.3661Y-3.0118
X3.6614Y-2.4213
X3.6614Y-2.7165
X3.6614Y-3.0118
X3.9567Y-2.7165
X4.252Y-2.4213
X4.252Y-2.7165
X4.252Y-3.0118
X4.5472Y-2.4213
X4.5472Y-2.7165
X4.5472Y-3.0118
T6
X3.5354Y-0.5213
X3.5354Y-0.6213
X3.5354Y-0.7213
T7
X0.2933Y-2.1835
X0.2933Y-2.3803
X0.7854Y-2.1835
X0.7854Y-2.3803
X1.0118Y-0.7071
X1.2087Y-0.7071
X2.9213Y-0.5693
X2.9213Y-1.1008
X3.0197Y-1.5551
X3.0197Y-1.752
X3.1181Y-0.5693
X3.1181Y-1.1008
X3.8354Y-0.6213
X4.0323Y-0.6213
T8
X0.1969Y-0.1969
X0.1969Y-3.3465
X3.3071Y-2.0866
X3.3071Y-3.3465
X4.5669Y-2.0866
X4.5669Y-3.3465
X5.315Y-0.1969
X5.315Y-3.3465
T5
G00X0.2657Y-0.5299
M15
G01X0.2067Y-0.5299
M16
G05
G00X0.2657Y-0.8843
M15
G01X0.2067Y-0.8843
M16
G05
G00X0.2756Y-0.6815
M15
G01X0.2756Y-0.7327
M16
G05
G00X0.5118Y-0.6677
M15
G01X0.5118Y-0.7465
M16
G05
M30
