%TF.GenerationSoftware,KiCad,Pcbnew,8.0.5-8.0.5-0~ubuntu22.04.1*%
%TF.CreationDate,2024-10-01T20:56:39-07:00*%
%TF.ProjectId,itla_driver_board_pcb,69746c61-5f64-4726-9976-65725f626f61,rev?*%
%TF.SameCoordinates,Original*%
%TF.FileFunction,Soldermask,Top*%
%TF.FilePolarity,Negative*%
%FSLAX46Y46*%
G04 Gerber Fmt 4.6, Leading zero omitted, Abs format (unit mm)*
G04 Created by KiCad (PCBNEW 8.0.5-8.0.5-0~ubuntu22.04.1) date 2024-10-01 20:56:39*
%MOMM*%
%LPD*%
G01*
G04 APERTURE LIST*
G04 Aperture macros list*
%AMRoundRect*
0 Rectangle with rounded corners*
0 $1 Rounding radius*
0 $2 $3 $4 $5 $6 $7 $8 $9 X,Y pos of 4 corners*
0 Add a 4 corners polygon primitive as box body*
4,1,4,$2,$3,$4,$5,$6,$7,$8,$9,$2,$3,0*
0 Add four circle primitives for the rounded corners*
1,1,$1+$1,$2,$3*
1,1,$1+$1,$4,$5*
1,1,$1+$1,$6,$7*
1,1,$1+$1,$8,$9*
0 Add four rect primitives between the rounded corners*
20,1,$1+$1,$2,$3,$4,$5,0*
20,1,$1+$1,$4,$5,$6,$7,0*
20,1,$1+$1,$6,$7,$8,$9,0*
20,1,$1+$1,$8,$9,$2,$3,0*%
G04 Aperture macros list end*
%ADD10C,0.000000*%
%ADD11C,1.524000*%
%ADD12C,1.600000*%
%ADD13O,1.600000X1.600000*%
%ADD14R,1.800000X1.800000*%
%ADD15C,1.800000*%
%ADD16R,2.000000X1.905000*%
%ADD17O,2.000000X1.905000*%
%ADD18R,1.600000X1.600000*%
%ADD19R,1.700000X1.700000*%
%ADD20O,1.700000X1.700000*%
%ADD21R,2.400000X2.400000*%
%ADD22C,2.400000*%
%ADD23R,1.000000X1.500000*%
%ADD24C,6.400000*%
%ADD25R,2.000000X0.500000*%
%ADD26RoundRect,0.500000X-0.500000X-1.000000X0.500000X-1.000000X0.500000X1.000000X-0.500000X1.000000X0*%
%ADD27R,2.000000X4.000000*%
%ADD28O,2.000000X3.300000*%
%ADD29O,3.500000X2.000000*%
%ADD30O,2.900000X1.700000*%
%ADD31R,36.750000X20.000000*%
%ADD32C,2.000000*%
G04 APERTURE END LIST*
D10*
%TO.C,G\u002A\u002A\u002A*%
G36*
X124665189Y-42829926D02*
G01*
X124736123Y-42834193D01*
X124795779Y-42842354D01*
X124830864Y-42851701D01*
X124906295Y-42890400D01*
X124962048Y-42942145D01*
X124990555Y-42988904D01*
X124998164Y-43007040D01*
X125004107Y-43026238D01*
X125008622Y-43049669D01*
X125011945Y-43080509D01*
X125014313Y-43121930D01*
X125015963Y-43177105D01*
X125017132Y-43249210D01*
X125018057Y-43341417D01*
X125018207Y-43359347D01*
X125019287Y-43461139D01*
X125020901Y-43542582D01*
X125023404Y-43607143D01*
X125027152Y-43658287D01*
X125032502Y-43699481D01*
X125039807Y-43734192D01*
X125049426Y-43765886D01*
X125061713Y-43798030D01*
X125063733Y-43802924D01*
X125065663Y-43812005D01*
X125059934Y-43817992D01*
X125042782Y-43821522D01*
X125010442Y-43823228D01*
X124959148Y-43823745D01*
X124940129Y-43823763D01*
X124878015Y-43822974D01*
X124836974Y-43820404D01*
X124814310Y-43815752D01*
X124807329Y-43808878D01*
X124802436Y-43787746D01*
X124792444Y-43761078D01*
X124778096Y-43728162D01*
X124719047Y-43770285D01*
X124633677Y-43817040D01*
X124540878Y-43842314D01*
X124444621Y-43845535D01*
X124348879Y-43826133D01*
X124343450Y-43824310D01*
X124278689Y-43791026D01*
X124222728Y-43741294D01*
X124181253Y-43680995D01*
X124164976Y-43639715D01*
X124155471Y-43570073D01*
X124159894Y-43526839D01*
X124414898Y-43526839D01*
X124423660Y-43565147D01*
X124445737Y-43605603D01*
X124474817Y-43636865D01*
X124477020Y-43638464D01*
X124512726Y-43652195D01*
X124560805Y-43656385D01*
X124611749Y-43650902D01*
X124645068Y-43640806D01*
X124699293Y-43606282D01*
X124736388Y-43555650D01*
X124755898Y-43489805D01*
X124758029Y-43418015D01*
X124754279Y-43363620D01*
X124617336Y-43396863D01*
X124555667Y-43412553D01*
X124512429Y-43425759D01*
X124482670Y-43438512D01*
X124461434Y-43452839D01*
X124447646Y-43466362D01*
X124426645Y-43495287D01*
X124415462Y-43521745D01*
X124414898Y-43526839D01*
X124159894Y-43526839D01*
X124162832Y-43498121D01*
X124185121Y-43430199D01*
X124220401Y-43372648D01*
X124257162Y-43337994D01*
X124306935Y-43310806D01*
X124375714Y-43284529D01*
X124458701Y-43260814D01*
X124522071Y-43246743D01*
X124579469Y-43234758D01*
X124637974Y-43221514D01*
X124686171Y-43209608D01*
X124691762Y-43208111D01*
X124730049Y-43196734D01*
X124750581Y-43186403D01*
X124758817Y-43172860D01*
X124760233Y-43154748D01*
X124750514Y-43102040D01*
X124723064Y-43062094D01*
X124680452Y-43038622D01*
X124679835Y-43038449D01*
X124608513Y-43026772D01*
X124544023Y-43031818D01*
X124490198Y-43052494D01*
X124450871Y-43087709D01*
X124439467Y-43106852D01*
X124427166Y-43129921D01*
X124413719Y-43140568D01*
X124391081Y-43142107D01*
X124361312Y-43139048D01*
X124311996Y-43131762D01*
X124258079Y-43121744D01*
X124239180Y-43117656D01*
X124176588Y-43103322D01*
X124210527Y-43031874D01*
X124259234Y-42954264D01*
X124322535Y-42894348D01*
X124398588Y-42853837D01*
X124404346Y-42851770D01*
X124452556Y-42840475D01*
X124516622Y-42833068D01*
X124589761Y-42829552D01*
X124665189Y-42829926D01*
G37*
G36*
X115877451Y-42830285D02*
G01*
X115949144Y-42836251D01*
X116008043Y-42846673D01*
X116020000Y-42850000D01*
X116093559Y-42883747D01*
X116157641Y-42934672D01*
X116206309Y-42997696D01*
X116217294Y-43018801D01*
X116231714Y-43052296D01*
X116239824Y-43075917D01*
X116240402Y-43083054D01*
X116224881Y-43089408D01*
X116193116Y-43097075D01*
X116151144Y-43105120D01*
X116105001Y-43112606D01*
X116060724Y-43118597D01*
X116024350Y-43122159D01*
X116001917Y-43122355D01*
X115997702Y-43120671D01*
X115978909Y-43089942D01*
X115946770Y-43058039D01*
X115909968Y-43032843D01*
X115892533Y-43025222D01*
X115843873Y-43015597D01*
X115789861Y-43014952D01*
X115736624Y-43022134D01*
X115690288Y-43035985D01*
X115656983Y-43055351D01*
X115644535Y-43071996D01*
X115639881Y-43093757D01*
X115645498Y-43112753D01*
X115663638Y-43130207D01*
X115696555Y-43147339D01*
X115746504Y-43165371D01*
X115815739Y-43185524D01*
X115889618Y-43204775D01*
X115997900Y-43234891D01*
X116084624Y-43265733D01*
X116152038Y-43298787D01*
X116202388Y-43335537D01*
X116237922Y-43377468D01*
X116260885Y-43426063D01*
X116268792Y-43455327D01*
X116275395Y-43537775D01*
X116258742Y-43615377D01*
X116218779Y-43688294D01*
X116173091Y-43740380D01*
X116121202Y-43781673D01*
X116060814Y-43811273D01*
X115987701Y-43830556D01*
X115897639Y-43840899D01*
X115858921Y-43842744D01*
X115779042Y-43843210D01*
X115712507Y-43839152D01*
X115667897Y-43831751D01*
X115573306Y-43798795D01*
X115496100Y-43753268D01*
X115453617Y-43714549D01*
X115424855Y-43677840D01*
X115397910Y-43635278D01*
X115376856Y-43594191D01*
X115365768Y-43561909D01*
X115364996Y-43555131D01*
X115375847Y-43548172D01*
X115405192Y-43539897D01*
X115447854Y-43531605D01*
X115474884Y-43527540D01*
X115525302Y-43520410D01*
X115567942Y-43513881D01*
X115596426Y-43508951D01*
X115603222Y-43507440D01*
X115621053Y-43514463D01*
X115641118Y-43545040D01*
X115644900Y-43552893D01*
X115680172Y-43603856D01*
X115730684Y-43637117D01*
X115796946Y-43652919D01*
X115857033Y-43653474D01*
X115922674Y-43644409D01*
X115967897Y-43626297D01*
X115994818Y-43597800D01*
X116005397Y-43559582D01*
X116003635Y-43526818D01*
X115993951Y-43505758D01*
X115993489Y-43505361D01*
X115976750Y-43497856D01*
X115941590Y-43486091D01*
X115892709Y-43471516D01*
X115834809Y-43455582D01*
X115817242Y-43450976D01*
X115722369Y-43425508D01*
X115647516Y-43403172D01*
X115589312Y-43382621D01*
X115544386Y-43362509D01*
X115509366Y-43341489D01*
X115480882Y-43318214D01*
X115477974Y-43315430D01*
X115434584Y-43263717D01*
X115409848Y-43207938D01*
X115400691Y-43140549D01*
X115400458Y-43125327D01*
X115411691Y-43046121D01*
X115444052Y-42975240D01*
X115495541Y-42915339D01*
X115564154Y-42869072D01*
X115607549Y-42850717D01*
X115658014Y-42838989D01*
X115724646Y-42831666D01*
X115800205Y-42828761D01*
X115877451Y-42830285D01*
G37*
G36*
X120252378Y-42827279D02*
G01*
X120355145Y-42840177D01*
X120439138Y-42865002D01*
X120506980Y-42903226D01*
X120561295Y-42956321D01*
X120604106Y-43024558D01*
X120617558Y-43053570D01*
X120621060Y-43073082D01*
X120611524Y-43086058D01*
X120585859Y-43095461D01*
X120540976Y-43104253D01*
X120516801Y-43108287D01*
X120471047Y-43116091D01*
X120432096Y-43123213D01*
X120408192Y-43128145D01*
X120407819Y-43128237D01*
X120388172Y-43126382D01*
X120370135Y-43107134D01*
X120361471Y-43092288D01*
X120326296Y-43051283D01*
X120274002Y-43025529D01*
X120206277Y-43015663D01*
X120163201Y-43017228D01*
X120099220Y-43028364D01*
X120056307Y-43048069D01*
X120035054Y-43076006D01*
X120032714Y-43091414D01*
X120035590Y-43109558D01*
X120046097Y-43125303D01*
X120067054Y-43139995D01*
X120101279Y-43154982D01*
X120151591Y-43171610D01*
X120220808Y-43191225D01*
X120267812Y-43203737D01*
X120359929Y-43229021D01*
X120432260Y-43251679D01*
X120488474Y-43273218D01*
X120532238Y-43295144D01*
X120567223Y-43318966D01*
X120584527Y-43333864D01*
X120629544Y-43390386D01*
X120654650Y-43454762D01*
X120660878Y-43523503D01*
X120649258Y-43593124D01*
X120620825Y-43660140D01*
X120576611Y-43721062D01*
X120517647Y-43772406D01*
X120444967Y-43810685D01*
X120443094Y-43811403D01*
X120386018Y-43826967D01*
X120313641Y-43837893D01*
X120234102Y-43843756D01*
X120155541Y-43844133D01*
X120086097Y-43838599D01*
X120050576Y-43831857D01*
X119975543Y-43805407D01*
X119904720Y-43767333D01*
X119845927Y-43722232D01*
X119823214Y-43698154D01*
X119795887Y-43660393D01*
X119772690Y-43620493D01*
X119756563Y-43584519D01*
X119750452Y-43558533D01*
X119751963Y-43551349D01*
X119765614Y-43545594D01*
X119797187Y-43538177D01*
X119840967Y-43530350D01*
X119862492Y-43527119D01*
X119911666Y-43519895D01*
X119953007Y-43513356D01*
X119979934Y-43508561D01*
X119985152Y-43507380D01*
X120002734Y-43514630D01*
X120022862Y-43544480D01*
X120027065Y-43552973D01*
X120062880Y-43604050D01*
X120113651Y-43637288D01*
X120179992Y-43652976D01*
X120239217Y-43653474D01*
X120304858Y-43644409D01*
X120350081Y-43626297D01*
X120377003Y-43597800D01*
X120387582Y-43559582D01*
X120385785Y-43526648D01*
X120375968Y-43505470D01*
X120375586Y-43505142D01*
X120358081Y-43497056D01*
X120322930Y-43485303D01*
X120275683Y-43471626D01*
X120235064Y-43461008D01*
X120124699Y-43431934D01*
X120035295Y-43404590D01*
X119964201Y-43377580D01*
X119908768Y-43349507D01*
X119866346Y-43318976D01*
X119834286Y-43284589D01*
X119809937Y-43244951D01*
X119804860Y-43234312D01*
X119786531Y-43167327D01*
X119786770Y-43094094D01*
X119804350Y-43021603D01*
X119838045Y-42956850D01*
X119857808Y-42932453D01*
X119913127Y-42889088D01*
X119986785Y-42856219D01*
X120075315Y-42834770D01*
X120175246Y-42825666D01*
X120252378Y-42827279D01*
G37*
G36*
X117002679Y-42833099D02*
G01*
X117075075Y-42844224D01*
X117135402Y-42865252D01*
X117189085Y-42897899D01*
X117226519Y-42929424D01*
X117255704Y-42961094D01*
X117285018Y-43000342D01*
X117311564Y-43042131D01*
X117332447Y-43081423D01*
X117344770Y-43113183D01*
X117345638Y-43132372D01*
X117344252Y-43134196D01*
X117329825Y-43139320D01*
X117298625Y-43146735D01*
X117256717Y-43155339D01*
X117210166Y-43164030D01*
X117165037Y-43171706D01*
X117127395Y-43177263D01*
X117103305Y-43179599D01*
X117097867Y-43178984D01*
X117091223Y-43166313D01*
X117079509Y-43139890D01*
X117075516Y-43130376D01*
X117043882Y-43082501D01*
X116995849Y-43051859D01*
X116931518Y-43038506D01*
X116911573Y-43037872D01*
X116844669Y-43046828D01*
X116791687Y-43074642D01*
X116750489Y-43122581D01*
X116741157Y-43139047D01*
X116730194Y-43163414D01*
X116722964Y-43190118D01*
X116718750Y-43224707D01*
X116716830Y-43272729D01*
X116716468Y-43329576D01*
X116717075Y-43393132D01*
X116719243Y-43438511D01*
X116723748Y-43471338D01*
X116731364Y-43497241D01*
X116742866Y-43521845D01*
X116742991Y-43522080D01*
X116782504Y-43575653D01*
X116831856Y-43611596D01*
X116886857Y-43630154D01*
X116943318Y-43631571D01*
X116997049Y-43616093D01*
X117043859Y-43583964D01*
X117079559Y-43535430D01*
X117093004Y-43501619D01*
X117100587Y-43479014D01*
X117110046Y-43464375D01*
X117125554Y-43457011D01*
X117151283Y-43456231D01*
X117191405Y-43461347D01*
X117250093Y-43471669D01*
X117261488Y-43473758D01*
X117310633Y-43482764D01*
X117341605Y-43491185D01*
X117356320Y-43503536D01*
X117356697Y-43524336D01*
X117344651Y-43558101D01*
X117322101Y-43609347D01*
X117320539Y-43612888D01*
X117283050Y-43676188D01*
X117230644Y-43735634D01*
X117170016Y-43784810D01*
X117107862Y-43817302D01*
X117106718Y-43817714D01*
X117056404Y-43830233D01*
X116991712Y-43838801D01*
X116920889Y-43843066D01*
X116852181Y-43842679D01*
X116793833Y-43837291D01*
X116769050Y-43832042D01*
X116675976Y-43794095D01*
X116596817Y-43737978D01*
X116532587Y-43665539D01*
X116484300Y-43578627D01*
X116452971Y-43479092D01*
X116439612Y-43368781D01*
X116445238Y-43249544D01*
X116446070Y-43243130D01*
X116469562Y-43134020D01*
X116508970Y-43041747D01*
X116565012Y-42964809D01*
X116592210Y-42938025D01*
X116652221Y-42891416D01*
X116714801Y-42859371D01*
X116785764Y-42839934D01*
X116870926Y-42831148D01*
X116912789Y-42830160D01*
X117002679Y-42833099D01*
G37*
G36*
X121942723Y-42830334D02*
G01*
X121984982Y-42833549D01*
X122018952Y-42840562D01*
X122052384Y-42852728D01*
X122074955Y-42862851D01*
X122161659Y-42915771D01*
X122232301Y-42985631D01*
X122286163Y-43071155D01*
X122322528Y-43171070D01*
X122340678Y-43284099D01*
X122342711Y-43338507D01*
X122342887Y-43418887D01*
X122020043Y-43418887D01*
X121697198Y-43418887D01*
X121705494Y-43463543D01*
X121728067Y-43536016D01*
X121765458Y-43589861D01*
X121817772Y-43625173D01*
X121885111Y-43642051D01*
X121896639Y-43643007D01*
X121939405Y-43644405D01*
X121967604Y-43640397D01*
X121990269Y-43628813D01*
X122005533Y-43616848D01*
X122033913Y-43586884D01*
X122055230Y-43554056D01*
X122056992Y-43550118D01*
X122063807Y-43533416D01*
X122070736Y-43522624D01*
X122082123Y-43517290D01*
X122102308Y-43516960D01*
X122135634Y-43521181D01*
X122186443Y-43529499D01*
X122212648Y-43533875D01*
X122270330Y-43543940D01*
X122306471Y-43553795D01*
X122322989Y-43567353D01*
X122321799Y-43588527D01*
X122304818Y-43621229D01*
X122276845Y-43664941D01*
X122220754Y-43735094D01*
X122154667Y-43786643D01*
X122075914Y-43820943D01*
X121981829Y-43839349D01*
X121926103Y-43843085D01*
X121870700Y-43843486D01*
X121819052Y-43841509D01*
X121779419Y-43837558D01*
X121768272Y-43835388D01*
X121675176Y-43800444D01*
X121595519Y-43747007D01*
X121530347Y-43676925D01*
X121480707Y-43592044D01*
X121447646Y-43494212D01*
X121432211Y-43385274D01*
X121435449Y-43267078D01*
X121437172Y-43252174D01*
X121698770Y-43252174D01*
X121889839Y-43252174D01*
X122080909Y-43252174D01*
X122080909Y-43218973D01*
X122073029Y-43178769D01*
X122052803Y-43132068D01*
X122025350Y-43088563D01*
X121995935Y-43058055D01*
X121963988Y-43042269D01*
X121922857Y-43030947D01*
X121910767Y-43029147D01*
X121849637Y-43033297D01*
X121795369Y-43058358D01*
X121750918Y-43101746D01*
X121719239Y-43160878D01*
X121706719Y-43207518D01*
X121698770Y-43252174D01*
X121437172Y-43252174D01*
X121437253Y-43251475D01*
X121461089Y-43141574D01*
X121502757Y-43044743D01*
X121561078Y-42962751D01*
X121634870Y-42897370D01*
X121697509Y-42861296D01*
X121732967Y-42846125D01*
X121765489Y-42836671D01*
X121802696Y-42831642D01*
X121852209Y-42829743D01*
X121884425Y-42829563D01*
X121942723Y-42830334D01*
G37*
G36*
X125522353Y-42710900D02*
G01*
X125522353Y-42943654D01*
X125578001Y-42901163D01*
X125655857Y-42855924D01*
X125740816Y-42831434D01*
X125828912Y-42827353D01*
X125916181Y-42843343D01*
X125998657Y-42879064D01*
X126072376Y-42934177D01*
X126082697Y-42944365D01*
X126137743Y-43016937D01*
X126177836Y-43103639D01*
X126203108Y-43200237D01*
X126213693Y-43302494D01*
X126209725Y-43406176D01*
X126191336Y-43507048D01*
X126158661Y-43600875D01*
X126111832Y-43683422D01*
X126057499Y-43744745D01*
X125987156Y-43795005D01*
X125908268Y-43829356D01*
X125826475Y-43846299D01*
X125747414Y-43844334D01*
X125712805Y-43836453D01*
X125629430Y-43798900D01*
X125551804Y-43739178D01*
X125549146Y-43736632D01*
X125498536Y-43687815D01*
X125498536Y-43755789D01*
X125498536Y-43823763D01*
X125379455Y-43823763D01*
X125260374Y-43823763D01*
X125260374Y-43326754D01*
X125518942Y-43326754D01*
X125520178Y-43384763D01*
X125523909Y-43426682D01*
X125531525Y-43460210D01*
X125544419Y-43493049D01*
X125551798Y-43508601D01*
X125589611Y-43569298D01*
X125634754Y-43608730D01*
X125690559Y-43629112D01*
X125739429Y-43633233D01*
X125781270Y-43631611D01*
X125810076Y-43624126D01*
X125836547Y-43606852D01*
X125855036Y-43590810D01*
X125892192Y-43549641D01*
X125917559Y-43501775D01*
X125932402Y-43442848D01*
X125937986Y-43368497D01*
X125937170Y-43307671D01*
X125933954Y-43247362D01*
X125928810Y-43204048D01*
X125920410Y-43170917D01*
X125907423Y-43141154D01*
X125903112Y-43133093D01*
X125862293Y-43080972D01*
X125809495Y-43046056D01*
X125749624Y-43029448D01*
X125687588Y-43032247D01*
X125628294Y-43055555D01*
X125610750Y-43067487D01*
X125570103Y-43107044D01*
X125542221Y-43155893D01*
X125525705Y-43217979D01*
X125519160Y-43297249D01*
X125518942Y-43326754D01*
X125260374Y-43326754D01*
X125260374Y-43150955D01*
X125260374Y-42478146D01*
X125391363Y-42478146D01*
X125522353Y-42478146D01*
X125522353Y-42710900D01*
G37*
G36*
X121149417Y-42674684D02*
G01*
X121152713Y-42847298D01*
X121241705Y-42847298D01*
X121330698Y-42847298D01*
X121330698Y-42954471D01*
X121330698Y-43061644D01*
X121240554Y-43061644D01*
X121150411Y-43061644D01*
X121154220Y-43324694D01*
X121155523Y-43410292D01*
X121156861Y-43475260D01*
X121158595Y-43522784D01*
X121161082Y-43556046D01*
X121164683Y-43578232D01*
X121169756Y-43592526D01*
X121176660Y-43602112D01*
X121185755Y-43610174D01*
X121186483Y-43610764D01*
X121212610Y-43625600D01*
X121234115Y-43628444D01*
X121259269Y-43622328D01*
X121291152Y-43615499D01*
X121313937Y-43612047D01*
X121326031Y-43617222D01*
X121332323Y-43636389D01*
X121336439Y-43665220D01*
X121342423Y-43710502D01*
X121348387Y-43754293D01*
X121349993Y-43765755D01*
X121352096Y-43795180D01*
X121343518Y-43810920D01*
X121318706Y-43822546D01*
X121316615Y-43823309D01*
X121280296Y-43832019D01*
X121230019Y-43838501D01*
X121173742Y-43842356D01*
X121119419Y-43843183D01*
X121075006Y-43840585D01*
X121054001Y-43836491D01*
X120988189Y-43805443D01*
X120940151Y-43761621D01*
X120918775Y-43725292D01*
X120912010Y-43706376D01*
X120906656Y-43683137D01*
X120902480Y-43652443D01*
X120899255Y-43611162D01*
X120896748Y-43556162D01*
X120894731Y-43484311D01*
X120892973Y-43392476D01*
X120892592Y-43368883D01*
X120887767Y-43062854D01*
X120832369Y-43059272D01*
X120776970Y-43055690D01*
X120773530Y-42951494D01*
X120770089Y-42847298D01*
X120829612Y-42847298D01*
X120889134Y-42847298D01*
X120892593Y-42749679D01*
X120896052Y-42652060D01*
X121021087Y-42577065D01*
X121146122Y-42502070D01*
X121149417Y-42674684D01*
G37*
G36*
X118949142Y-43171794D02*
G01*
X118949587Y-43259665D01*
X118950808Y-43341692D01*
X118952688Y-43414262D01*
X118955109Y-43473765D01*
X118957955Y-43516589D01*
X118961032Y-43538853D01*
X118984872Y-43590063D01*
X119023721Y-43623439D01*
X119078981Y-43640059D01*
X119094858Y-43641676D01*
X119163096Y-43636313D01*
X119220055Y-43610110D01*
X119264750Y-43563617D01*
X119279526Y-43538373D01*
X119287559Y-43521529D01*
X119293804Y-43504590D01*
X119298485Y-43484433D01*
X119301826Y-43457935D01*
X119304053Y-43421974D01*
X119305390Y-43373427D01*
X119306063Y-43309171D01*
X119306296Y-43226084D01*
X119306319Y-43166294D01*
X119306319Y-42847298D01*
X119443262Y-42847298D01*
X119580205Y-42847298D01*
X119580205Y-43335530D01*
X119580205Y-43823763D01*
X119455170Y-43823763D01*
X119330135Y-43823763D01*
X119330135Y-43755789D01*
X119330135Y-43687815D01*
X119279526Y-43737357D01*
X119239134Y-43770949D01*
X119192637Y-43801309D01*
X119169376Y-43813217D01*
X119101762Y-43833909D01*
X119023868Y-43843466D01*
X118946217Y-43841294D01*
X118886318Y-43829170D01*
X118837057Y-43805945D01*
X118787908Y-43770428D01*
X118777387Y-43760815D01*
X118754286Y-43737345D01*
X118735487Y-43714057D01*
X118720549Y-43688285D01*
X118709032Y-43657362D01*
X118700494Y-43618623D01*
X118694497Y-43569401D01*
X118690599Y-43507031D01*
X118688360Y-43428847D01*
X118687339Y-43332183D01*
X118687097Y-43214373D01*
X118687097Y-43214288D01*
X118687097Y-42847298D01*
X118818086Y-42847298D01*
X118949075Y-42847298D01*
X118949142Y-43171794D01*
G37*
G36*
X117805897Y-42716586D02*
G01*
X117805897Y-42955025D01*
X117866463Y-42907150D01*
X117946266Y-42858583D01*
X118033480Y-42831538D01*
X118124379Y-42826483D01*
X118215242Y-42843884D01*
X118253653Y-42858511D01*
X118295506Y-42879136D01*
X118330527Y-42902257D01*
X118359313Y-42930077D01*
X118382461Y-42964800D01*
X118400566Y-43008630D01*
X118414226Y-43063769D01*
X118424035Y-43132424D01*
X118430592Y-43216795D01*
X118434491Y-43319089D01*
X118436329Y-43441507D01*
X118436704Y-43534991D01*
X118437027Y-43823763D01*
X118300083Y-43823763D01*
X118163140Y-43823763D01*
X118163140Y-43477836D01*
X118162964Y-43374660D01*
X118162346Y-43292585D01*
X118161156Y-43228899D01*
X118159259Y-43180890D01*
X118156524Y-43145845D01*
X118152818Y-43121053D01*
X118148009Y-43103800D01*
X118144487Y-43095839D01*
X118112889Y-43058160D01*
X118068509Y-43035698D01*
X118016444Y-43027935D01*
X117961789Y-43034355D01*
X117909642Y-43054438D01*
X117865098Y-43087669D01*
X117836357Y-43127139D01*
X117829006Y-43142906D01*
X117823222Y-43160317D01*
X117818775Y-43182418D01*
X117815433Y-43212255D01*
X117812967Y-43252874D01*
X117811146Y-43307321D01*
X117809738Y-43378643D01*
X117808514Y-43469886D01*
X117808174Y-43499267D01*
X117804497Y-43823763D01*
X117674208Y-43823763D01*
X117543918Y-43823763D01*
X117543918Y-43150955D01*
X117543918Y-42478146D01*
X117674908Y-42478146D01*
X117805897Y-42478146D01*
X117805897Y-42716586D01*
G37*
G36*
X123033976Y-42826651D02*
G01*
X123074604Y-42834780D01*
X123115583Y-42845796D01*
X123149369Y-42857630D01*
X123168419Y-42868211D01*
X123169627Y-42869700D01*
X123168007Y-42883279D01*
X123160260Y-42913180D01*
X123148339Y-42953321D01*
X123134198Y-42997623D01*
X123119789Y-43040003D01*
X123107067Y-43074380D01*
X123097985Y-43094673D01*
X123096762Y-43096525D01*
X123084658Y-43095196D01*
X123059426Y-43085577D01*
X123050866Y-43081640D01*
X122989532Y-43063035D01*
X122933527Y-43066902D01*
X122885321Y-43092387D01*
X122847383Y-43138639D01*
X122839128Y-43154777D01*
X122831234Y-43173417D01*
X122825067Y-43193031D01*
X122820361Y-43216862D01*
X122816850Y-43248156D01*
X122814267Y-43290156D01*
X122812346Y-43346107D01*
X122810820Y-43419252D01*
X122809423Y-43512838D01*
X122809365Y-43517129D01*
X122805230Y-43823763D01*
X122669324Y-43823763D01*
X122533417Y-43823763D01*
X122533417Y-43335530D01*
X122533417Y-42847298D01*
X122658452Y-42847298D01*
X122783487Y-42847298D01*
X122783487Y-42908515D01*
X122783487Y-42969732D01*
X122833566Y-42912839D01*
X122888174Y-42861649D01*
X122943674Y-42832440D01*
X123001243Y-42823482D01*
X123033976Y-42826651D01*
G37*
G36*
X123962390Y-43150955D02*
G01*
X123962390Y-43823763D01*
X123831401Y-43823763D01*
X123700412Y-43823763D01*
X123700412Y-43150955D01*
X123700412Y-42478146D01*
X123831401Y-42478146D01*
X123962390Y-42478146D01*
X123962390Y-43150955D01*
G37*
G36*
X123438433Y-43692774D02*
G01*
X123438433Y-43823763D01*
X123307444Y-43823763D01*
X123176455Y-43823763D01*
X123176455Y-43692774D01*
X123176455Y-43561785D01*
X123307444Y-43561785D01*
X123438433Y-43561785D01*
X123438433Y-43692774D01*
G37*
%TD*%
D11*
%TO.C,U3*%
X48700000Y-37940000D03*
X53740000Y-37940000D03*
X41080000Y-58300000D03*
X51240000Y-58260000D03*
X61400000Y-58300000D03*
X61440000Y-37980000D03*
%TD*%
%TO.C,U1*%
X48700000Y-9940000D03*
X53740000Y-9940000D03*
X41080000Y-30300000D03*
X51240000Y-30260000D03*
X61400000Y-30300000D03*
X61440000Y-9980000D03*
%TD*%
D12*
%TO.C,R1*%
X118310000Y-21000000D03*
D13*
X110690000Y-21000000D03*
%TD*%
D14*
%TO.C,D3*%
X125000000Y-16000000D03*
D15*
X127540000Y-16000000D03*
%TD*%
D16*
%TO.C,U4*%
X89800000Y-18320000D03*
D17*
X89800000Y-15780000D03*
X89800000Y-13240000D03*
%TD*%
D18*
%TO.C,SW3*%
X112000000Y-14000000D03*
D12*
X114500000Y-14000000D03*
X117000000Y-14000000D03*
X112000000Y-17200000D03*
X114500000Y-17200000D03*
X117000000Y-17200000D03*
%TD*%
D19*
%TO.C,J3*%
X53000000Y-70000000D03*
D20*
X53000000Y-72540000D03*
X53000000Y-75080000D03*
X53000000Y-77620000D03*
%TD*%
D21*
%TO.C,C8*%
X97420000Y-15780000D03*
D22*
X102420000Y-15780000D03*
%TD*%
D23*
%TO.C,JP1*%
X27000000Y-37000000D03*
X28300000Y-37000000D03*
%TD*%
D12*
%TO.C,R3*%
X40000000Y-77810000D03*
D13*
X40000000Y-70190000D03*
%TD*%
D23*
%TO.C,JP8*%
X103300000Y-39000000D03*
X102000000Y-39000000D03*
%TD*%
D14*
%TO.C,D1*%
X30000000Y-82460000D03*
D15*
X30000000Y-85000000D03*
%TD*%
D12*
%TO.C,R4*%
X20000000Y-75810000D03*
D13*
X20000000Y-68190000D03*
%TD*%
D23*
%TO.C,JP5*%
X102000000Y-30000000D03*
X103300000Y-30000000D03*
%TD*%
D24*
%TO.C,H4*%
X135000000Y-5000000D03*
%TD*%
D25*
%TO.C,J1*%
X136000000Y-38560000D03*
X132700000Y-38560000D03*
X136000000Y-37560000D03*
X132700000Y-37560000D03*
X136000000Y-36560000D03*
X132700000Y-36560000D03*
X136000000Y-35560000D03*
X132700000Y-35560000D03*
X136000000Y-34560000D03*
X132700000Y-34560000D03*
X136000000Y-33560000D03*
X132700000Y-33560000D03*
X136000000Y-32560000D03*
X132700000Y-32560000D03*
%TD*%
D12*
%TO.C,C5*%
X67700000Y-12960000D03*
X67700000Y-17960000D03*
%TD*%
D24*
%TO.C,H1*%
X5000000Y-5000000D03*
%TD*%
D23*
%TO.C,JP2*%
X102000000Y-45000000D03*
X103300000Y-45000000D03*
%TD*%
D26*
%TO.C,U2*%
X13200000Y-44960000D03*
X15740000Y-44960000D03*
X18280000Y-44960000D03*
X20820000Y-44960000D03*
X23360000Y-44960000D03*
X23360000Y-32260000D03*
X20820000Y-32260000D03*
X18280000Y-32260000D03*
X15740000Y-32260000D03*
X13200000Y-32260000D03*
%TD*%
D23*
%TO.C,JP4*%
X102000000Y-33000000D03*
X103300000Y-33000000D03*
%TD*%
D12*
%TO.C,R5*%
X27500000Y-47690000D03*
D13*
X27500000Y-55310000D03*
%TD*%
D21*
%TO.C,C1*%
X25700000Y-17960000D03*
D22*
X30700000Y-17960000D03*
%TD*%
D12*
%TO.C,J2*%
X4000000Y-17960000D03*
D27*
X13000000Y-17960000D03*
D28*
X7000000Y-17960000D03*
D29*
X6000000Y-13460000D03*
X6000000Y-22460000D03*
%TD*%
D23*
%TO.C,JP9*%
X91700000Y-45000000D03*
X93000000Y-45000000D03*
%TD*%
%TO.C,JP13*%
X91700000Y-33000000D03*
X93000000Y-33000000D03*
%TD*%
%TO.C,JP7*%
X102000000Y-42000000D03*
X103300000Y-42000000D03*
%TD*%
D12*
%TO.C,C6*%
X67700000Y-44176041D03*
X67700000Y-39176041D03*
%TD*%
D23*
%TO.C,JP10*%
X91700000Y-42000000D03*
X93000000Y-42000000D03*
%TD*%
%TO.C,JP14*%
X91700000Y-30000000D03*
X93000000Y-30000000D03*
%TD*%
D12*
%TO.C,R2*%
X30000000Y-77810000D03*
D13*
X30000000Y-70190000D03*
%TD*%
D23*
%TO.C,JP3*%
X102000000Y-36000000D03*
X103300000Y-36000000D03*
%TD*%
D12*
%TO.C,C4*%
X67700000Y-30460000D03*
X67700000Y-25460000D03*
%TD*%
D23*
%TO.C,JP11*%
X91700000Y-39000000D03*
X93000000Y-39000000D03*
%TD*%
D21*
%TO.C,C2*%
X74200000Y-27960000D03*
D22*
X79200000Y-27960000D03*
%TD*%
D23*
%TO.C,JP15*%
X91700000Y-27000000D03*
X93000000Y-27000000D03*
%TD*%
%TO.C,JP12*%
X91700000Y-36000000D03*
X93000000Y-36000000D03*
%TD*%
D24*
%TO.C,H2*%
X5000000Y-85000000D03*
%TD*%
D15*
%TO.C,SW2*%
X13700000Y-53460000D03*
X13700000Y-62460000D03*
D30*
X7450000Y-55460000D03*
X19950000Y-55460000D03*
X7450000Y-60460000D03*
X19950000Y-60460000D03*
%TD*%
D12*
%TO.C,R6*%
X102810000Y-53000000D03*
D13*
X95190000Y-53000000D03*
%TD*%
D14*
%TO.C,D2*%
X40000000Y-82460000D03*
D15*
X40000000Y-85000000D03*
%TD*%
D24*
%TO.C,H3*%
X135000000Y-85000000D03*
%TD*%
D23*
%TO.C,JP6*%
X102000000Y-27000000D03*
X103300000Y-27000000D03*
%TD*%
D21*
%TO.C,C3*%
X79200000Y-14460000D03*
D22*
X74200000Y-14460000D03*
%TD*%
D18*
%TO.C,SW1*%
X13200000Y-73460000D03*
D12*
X10700000Y-73460000D03*
X8200000Y-73460000D03*
X13200000Y-70260000D03*
X10700000Y-70260000D03*
X8200000Y-70260000D03*
%TD*%
D21*
%TO.C,C7*%
X76700000Y-44500000D03*
D22*
X76700000Y-39500000D03*
%TD*%
D24*
%TO.C,H8*%
X116000000Y-85000000D03*
%TD*%
%TO.C,H7*%
X84000000Y-85000000D03*
%TD*%
%TO.C,H5*%
X84000000Y-53000000D03*
%TD*%
%TO.C,H6*%
X116000000Y-53000000D03*
%TD*%
D31*
%TO.C,J4*%
X99625000Y-69000000D03*
D25*
X71750000Y-72000000D03*
X74250000Y-72000000D03*
X71750000Y-71000000D03*
X74250000Y-71000000D03*
X71750000Y-70000000D03*
X74250000Y-70000000D03*
X71750000Y-69000000D03*
X74250000Y-69000000D03*
X71750000Y-68000000D03*
X74250000Y-68000000D03*
X71700000Y-67000000D03*
X74200000Y-67000000D03*
X71750000Y-66000000D03*
X74200000Y-66000000D03*
D32*
X101000000Y-77000000D03*
X101000000Y-61000000D03*
X71000000Y-77000000D03*
X71000000Y-61000000D03*
%TD*%
M02*
