%TF.GenerationSoftware,KiCad,Pcbnew,8.0.5-8.0.5-0~ubuntu22.04.1*%
%TF.CreationDate,2024-10-01T20:56:38-07:00*%
%TF.ProjectId,itla_driver_board_pcb,69746c61-5f64-4726-9976-65725f626f61,rev?*%
%TF.SameCoordinates,Original*%
%TF.FileFunction,Copper,L1,Top*%
%TF.FilePolarity,Positive*%
%FSLAX46Y46*%
G04 Gerber Fmt 4.6, Leading zero omitted, Abs format (unit mm)*
G04 Created by KiCad (PCBNEW 8.0.5-8.0.5-0~ubuntu22.04.1) date 2024-10-01 20:56:38*
%MOMM*%
%LPD*%
G01*
G04 APERTURE LIST*
G04 Aperture macros list*
%AMRoundRect*
0 Rectangle with rounded corners*
0 $1 Rounding radius*
0 $2 $3 $4 $5 $6 $7 $8 $9 X,Y pos of 4 corners*
0 Add a 4 corners polygon primitive as box body*
4,1,4,$2,$3,$4,$5,$6,$7,$8,$9,$2,$3,0*
0 Add four circle primitives for the rounded corners*
1,1,$1+$1,$2,$3*
1,1,$1+$1,$4,$5*
1,1,$1+$1,$6,$7*
1,1,$1+$1,$8,$9*
0 Add four rect primitives between the rounded corners*
20,1,$1+$1,$2,$3,$4,$5,0*
20,1,$1+$1,$4,$5,$6,$7,0*
20,1,$1+$1,$6,$7,$8,$9,0*
20,1,$1+$1,$8,$9,$2,$3,0*%
G04 Aperture macros list end*
%TA.AperFunction,EtchedComponent*%
%ADD10C,0.000000*%
%TD*%
%TA.AperFunction,ComponentPad*%
%ADD11C,1.524000*%
%TD*%
%TA.AperFunction,ComponentPad*%
%ADD12C,1.600000*%
%TD*%
%TA.AperFunction,ComponentPad*%
%ADD13O,1.600000X1.600000*%
%TD*%
%TA.AperFunction,ComponentPad*%
%ADD14R,1.800000X1.800000*%
%TD*%
%TA.AperFunction,ComponentPad*%
%ADD15C,1.800000*%
%TD*%
%TA.AperFunction,ComponentPad*%
%ADD16R,2.000000X1.905000*%
%TD*%
%TA.AperFunction,ComponentPad*%
%ADD17O,2.000000X1.905000*%
%TD*%
%TA.AperFunction,ComponentPad*%
%ADD18R,1.600000X1.600000*%
%TD*%
%TA.AperFunction,ComponentPad*%
%ADD19R,1.700000X1.700000*%
%TD*%
%TA.AperFunction,ComponentPad*%
%ADD20O,1.700000X1.700000*%
%TD*%
%TA.AperFunction,ComponentPad*%
%ADD21R,2.400000X2.400000*%
%TD*%
%TA.AperFunction,ComponentPad*%
%ADD22C,2.400000*%
%TD*%
%TA.AperFunction,SMDPad,CuDef*%
%ADD23R,1.000000X1.500000*%
%TD*%
%TA.AperFunction,ComponentPad*%
%ADD24C,6.400000*%
%TD*%
%TA.AperFunction,SMDPad,CuDef*%
%ADD25R,2.000000X0.500000*%
%TD*%
%TA.AperFunction,SMDPad,CuDef*%
%ADD26RoundRect,0.500000X-0.500000X-1.000000X0.500000X-1.000000X0.500000X1.000000X-0.500000X1.000000X0*%
%TD*%
%TA.AperFunction,ComponentPad*%
%ADD27R,2.000000X4.000000*%
%TD*%
%TA.AperFunction,ComponentPad*%
%ADD28O,2.000000X3.300000*%
%TD*%
%TA.AperFunction,ComponentPad*%
%ADD29O,3.500000X2.000000*%
%TD*%
%TA.AperFunction,ComponentPad*%
%ADD30O,2.900000X1.700000*%
%TD*%
%TA.AperFunction,ComponentPad*%
%ADD31C,2.000000*%
%TD*%
%TA.AperFunction,SMDPad,CuDef*%
%ADD32R,36.750000X20.000000*%
%TD*%
%TA.AperFunction,ViaPad*%
%ADD33C,0.600000*%
%TD*%
%TA.AperFunction,Conductor*%
%ADD34C,1.000000*%
%TD*%
%TA.AperFunction,Conductor*%
%ADD35C,2.000000*%
%TD*%
%TA.AperFunction,Conductor*%
%ADD36C,0.500000*%
%TD*%
%TA.AperFunction,Conductor*%
%ADD37C,0.200000*%
%TD*%
G04 APERTURE END LIST*
D10*
%TA.AperFunction,EtchedComponent*%
%TO.C,G\u002A\u002A\u002A*%
G36*
X115880181Y-42828182D02*
G01*
X115951874Y-42834148D01*
X116010773Y-42844570D01*
X116022730Y-42847897D01*
X116096289Y-42881644D01*
X116160371Y-42932569D01*
X116209039Y-42995593D01*
X116220024Y-43016698D01*
X116234444Y-43050193D01*
X116242554Y-43073814D01*
X116243132Y-43080951D01*
X116227611Y-43087305D01*
X116195846Y-43094972D01*
X116153874Y-43103017D01*
X116107731Y-43110503D01*
X116063454Y-43116494D01*
X116027080Y-43120056D01*
X116004647Y-43120252D01*
X116000432Y-43118568D01*
X115981639Y-43087839D01*
X115949500Y-43055936D01*
X115912698Y-43030740D01*
X115895263Y-43023119D01*
X115846603Y-43013494D01*
X115792591Y-43012849D01*
X115739354Y-43020031D01*
X115693018Y-43033882D01*
X115659713Y-43053248D01*
X115647265Y-43069893D01*
X115642611Y-43091654D01*
X115648228Y-43110650D01*
X115666368Y-43128104D01*
X115699285Y-43145236D01*
X115749234Y-43163268D01*
X115818469Y-43183421D01*
X115892348Y-43202672D01*
X116000630Y-43232788D01*
X116087354Y-43263630D01*
X116154768Y-43296684D01*
X116205118Y-43333434D01*
X116240652Y-43375365D01*
X116263615Y-43423960D01*
X116271522Y-43453224D01*
X116278125Y-43535672D01*
X116261472Y-43613274D01*
X116221509Y-43686191D01*
X116175821Y-43738277D01*
X116123932Y-43779570D01*
X116063544Y-43809170D01*
X115990431Y-43828453D01*
X115900369Y-43838796D01*
X115861651Y-43840641D01*
X115781772Y-43841107D01*
X115715237Y-43837049D01*
X115670627Y-43829648D01*
X115576036Y-43796692D01*
X115498830Y-43751165D01*
X115456347Y-43712446D01*
X115427585Y-43675737D01*
X115400640Y-43633175D01*
X115379586Y-43592088D01*
X115368498Y-43559806D01*
X115367726Y-43553028D01*
X115378577Y-43546069D01*
X115407922Y-43537794D01*
X115450584Y-43529502D01*
X115477614Y-43525437D01*
X115528032Y-43518307D01*
X115570672Y-43511778D01*
X115599156Y-43506848D01*
X115605952Y-43505337D01*
X115623783Y-43512360D01*
X115643848Y-43542937D01*
X115647630Y-43550790D01*
X115682902Y-43601753D01*
X115733414Y-43635014D01*
X115799676Y-43650816D01*
X115859763Y-43651371D01*
X115925404Y-43642306D01*
X115970627Y-43624194D01*
X115997548Y-43595697D01*
X116008127Y-43557479D01*
X116006365Y-43524715D01*
X115996681Y-43503655D01*
X115996219Y-43503258D01*
X115979480Y-43495753D01*
X115944320Y-43483988D01*
X115895439Y-43469413D01*
X115837539Y-43453479D01*
X115819972Y-43448873D01*
X115725099Y-43423405D01*
X115650246Y-43401069D01*
X115592042Y-43380518D01*
X115547116Y-43360406D01*
X115512096Y-43339386D01*
X115483612Y-43316111D01*
X115480704Y-43313327D01*
X115437314Y-43261614D01*
X115412578Y-43205835D01*
X115403421Y-43138446D01*
X115403188Y-43123224D01*
X115414421Y-43044018D01*
X115446782Y-42973137D01*
X115498271Y-42913236D01*
X115566884Y-42866969D01*
X115610279Y-42848614D01*
X115660744Y-42836886D01*
X115727376Y-42829563D01*
X115802935Y-42826658D01*
X115880181Y-42828182D01*
G37*
%TD.AperFunction*%
%TA.AperFunction,EtchedComponent*%
G36*
X117005409Y-42830996D02*
G01*
X117077805Y-42842121D01*
X117138132Y-42863149D01*
X117191815Y-42895796D01*
X117229249Y-42927321D01*
X117258434Y-42958991D01*
X117287748Y-42998239D01*
X117314294Y-43040028D01*
X117335177Y-43079320D01*
X117347500Y-43111080D01*
X117348368Y-43130269D01*
X117346982Y-43132093D01*
X117332555Y-43137217D01*
X117301355Y-43144632D01*
X117259447Y-43153236D01*
X117212896Y-43161927D01*
X117167767Y-43169603D01*
X117130125Y-43175160D01*
X117106035Y-43177496D01*
X117100597Y-43176881D01*
X117093953Y-43164210D01*
X117082239Y-43137787D01*
X117078246Y-43128273D01*
X117046612Y-43080398D01*
X116998579Y-43049756D01*
X116934248Y-43036403D01*
X116914303Y-43035769D01*
X116847399Y-43044725D01*
X116794417Y-43072539D01*
X116753219Y-43120478D01*
X116743887Y-43136944D01*
X116732924Y-43161311D01*
X116725694Y-43188015D01*
X116721480Y-43222604D01*
X116719560Y-43270626D01*
X116719198Y-43327473D01*
X116719805Y-43391029D01*
X116721973Y-43436408D01*
X116726478Y-43469235D01*
X116734094Y-43495138D01*
X116745596Y-43519742D01*
X116745721Y-43519977D01*
X116785234Y-43573550D01*
X116834586Y-43609493D01*
X116889587Y-43628051D01*
X116946048Y-43629468D01*
X116999779Y-43613990D01*
X117046589Y-43581861D01*
X117082289Y-43533327D01*
X117095734Y-43499516D01*
X117103317Y-43476911D01*
X117112776Y-43462272D01*
X117128284Y-43454908D01*
X117154013Y-43454128D01*
X117194135Y-43459244D01*
X117252823Y-43469566D01*
X117264218Y-43471655D01*
X117313363Y-43480661D01*
X117344335Y-43489082D01*
X117359050Y-43501433D01*
X117359427Y-43522233D01*
X117347381Y-43555998D01*
X117324831Y-43607244D01*
X117323269Y-43610785D01*
X117285780Y-43674085D01*
X117233374Y-43733531D01*
X117172746Y-43782707D01*
X117110592Y-43815199D01*
X117109448Y-43815611D01*
X117059134Y-43828130D01*
X116994442Y-43836698D01*
X116923619Y-43840963D01*
X116854911Y-43840576D01*
X116796563Y-43835188D01*
X116771780Y-43829939D01*
X116678706Y-43791992D01*
X116599547Y-43735875D01*
X116535317Y-43663436D01*
X116487030Y-43576524D01*
X116455701Y-43476989D01*
X116442342Y-43366678D01*
X116447968Y-43247441D01*
X116448800Y-43241027D01*
X116472292Y-43131917D01*
X116511700Y-43039644D01*
X116567742Y-42962706D01*
X116594940Y-42935922D01*
X116654951Y-42889313D01*
X116717531Y-42857268D01*
X116788494Y-42837831D01*
X116873656Y-42829045D01*
X116915519Y-42828057D01*
X117005409Y-42830996D01*
G37*
%TD.AperFunction*%
%TA.AperFunction,EtchedComponent*%
G36*
X118951872Y-43169691D02*
G01*
X118952317Y-43257562D01*
X118953538Y-43339589D01*
X118955418Y-43412159D01*
X118957839Y-43471662D01*
X118960685Y-43514486D01*
X118963762Y-43536750D01*
X118987602Y-43587960D01*
X119026451Y-43621336D01*
X119081711Y-43637956D01*
X119097588Y-43639573D01*
X119165826Y-43634210D01*
X119222785Y-43608007D01*
X119267480Y-43561514D01*
X119282256Y-43536270D01*
X119290289Y-43519426D01*
X119296534Y-43502487D01*
X119301215Y-43482330D01*
X119304556Y-43455832D01*
X119306783Y-43419871D01*
X119308120Y-43371324D01*
X119308793Y-43307068D01*
X119309026Y-43223981D01*
X119309049Y-43164191D01*
X119309049Y-42845195D01*
X119445992Y-42845195D01*
X119582935Y-42845195D01*
X119582935Y-43333427D01*
X119582935Y-43821660D01*
X119457900Y-43821660D01*
X119332865Y-43821660D01*
X119332865Y-43753686D01*
X119332865Y-43685712D01*
X119282256Y-43735254D01*
X119241864Y-43768846D01*
X119195367Y-43799206D01*
X119172106Y-43811114D01*
X119104492Y-43831806D01*
X119026598Y-43841363D01*
X118948947Y-43839191D01*
X118889048Y-43827067D01*
X118839787Y-43803842D01*
X118790638Y-43768325D01*
X118780117Y-43758712D01*
X118757016Y-43735242D01*
X118738217Y-43711954D01*
X118723279Y-43686182D01*
X118711762Y-43655259D01*
X118703224Y-43616520D01*
X118697227Y-43567298D01*
X118693329Y-43504928D01*
X118691090Y-43426744D01*
X118690069Y-43330080D01*
X118689827Y-43212270D01*
X118689827Y-43212185D01*
X118689827Y-42845195D01*
X118820816Y-42845195D01*
X118951805Y-42845195D01*
X118951872Y-43169691D01*
G37*
%TD.AperFunction*%
%TA.AperFunction,EtchedComponent*%
G36*
X120255108Y-42825176D02*
G01*
X120357875Y-42838074D01*
X120441868Y-42862899D01*
X120509710Y-42901123D01*
X120564025Y-42954218D01*
X120606836Y-43022455D01*
X120620288Y-43051467D01*
X120623790Y-43070979D01*
X120614254Y-43083955D01*
X120588589Y-43093358D01*
X120543706Y-43102150D01*
X120519531Y-43106184D01*
X120473777Y-43113988D01*
X120434826Y-43121110D01*
X120410922Y-43126042D01*
X120410549Y-43126134D01*
X120390902Y-43124279D01*
X120372865Y-43105031D01*
X120364201Y-43090185D01*
X120329026Y-43049180D01*
X120276732Y-43023426D01*
X120209007Y-43013560D01*
X120165931Y-43015125D01*
X120101950Y-43026261D01*
X120059037Y-43045966D01*
X120037784Y-43073903D01*
X120035444Y-43089311D01*
X120038320Y-43107455D01*
X120048827Y-43123200D01*
X120069784Y-43137892D01*
X120104009Y-43152879D01*
X120154321Y-43169507D01*
X120223538Y-43189122D01*
X120270542Y-43201634D01*
X120362659Y-43226918D01*
X120434990Y-43249576D01*
X120491204Y-43271115D01*
X120534968Y-43293041D01*
X120569953Y-43316863D01*
X120587257Y-43331761D01*
X120632274Y-43388283D01*
X120657380Y-43452659D01*
X120663608Y-43521400D01*
X120651988Y-43591021D01*
X120623555Y-43658037D01*
X120579341Y-43718959D01*
X120520377Y-43770303D01*
X120447697Y-43808582D01*
X120445824Y-43809300D01*
X120388748Y-43824864D01*
X120316371Y-43835790D01*
X120236832Y-43841653D01*
X120158271Y-43842030D01*
X120088827Y-43836496D01*
X120053306Y-43829754D01*
X119978273Y-43803304D01*
X119907450Y-43765230D01*
X119848657Y-43720129D01*
X119825944Y-43696051D01*
X119798617Y-43658290D01*
X119775420Y-43618390D01*
X119759293Y-43582416D01*
X119753182Y-43556430D01*
X119754693Y-43549246D01*
X119768344Y-43543491D01*
X119799917Y-43536074D01*
X119843697Y-43528247D01*
X119865222Y-43525016D01*
X119914396Y-43517792D01*
X119955737Y-43511253D01*
X119982664Y-43506458D01*
X119987882Y-43505277D01*
X120005464Y-43512527D01*
X120025592Y-43542377D01*
X120029795Y-43550870D01*
X120065610Y-43601947D01*
X120116381Y-43635185D01*
X120182722Y-43650873D01*
X120241947Y-43651371D01*
X120307588Y-43642306D01*
X120352811Y-43624194D01*
X120379733Y-43595697D01*
X120390312Y-43557479D01*
X120388515Y-43524545D01*
X120378698Y-43503367D01*
X120378316Y-43503039D01*
X120360811Y-43494953D01*
X120325660Y-43483200D01*
X120278413Y-43469523D01*
X120237794Y-43458905D01*
X120127429Y-43429831D01*
X120038025Y-43402487D01*
X119966931Y-43375477D01*
X119911498Y-43347404D01*
X119869076Y-43316873D01*
X119837016Y-43282486D01*
X119812667Y-43242848D01*
X119807590Y-43232209D01*
X119789261Y-43165224D01*
X119789500Y-43091991D01*
X119807080Y-43019500D01*
X119840775Y-42954747D01*
X119860538Y-42930350D01*
X119915857Y-42886985D01*
X119989515Y-42854116D01*
X120078045Y-42832667D01*
X120177976Y-42823563D01*
X120255108Y-42825176D01*
G37*
%TD.AperFunction*%
%TA.AperFunction,EtchedComponent*%
G36*
X121152147Y-42672581D02*
G01*
X121155443Y-42845195D01*
X121244435Y-42845195D01*
X121333428Y-42845195D01*
X121333428Y-42952368D01*
X121333428Y-43059541D01*
X121243284Y-43059541D01*
X121153141Y-43059541D01*
X121156950Y-43322591D01*
X121158253Y-43408189D01*
X121159591Y-43473157D01*
X121161325Y-43520681D01*
X121163812Y-43553943D01*
X121167413Y-43576129D01*
X121172486Y-43590423D01*
X121179390Y-43600009D01*
X121188485Y-43608071D01*
X121189213Y-43608661D01*
X121215340Y-43623497D01*
X121236845Y-43626341D01*
X121261999Y-43620225D01*
X121293882Y-43613396D01*
X121316667Y-43609944D01*
X121328761Y-43615119D01*
X121335053Y-43634286D01*
X121339169Y-43663117D01*
X121345153Y-43708399D01*
X121351117Y-43752190D01*
X121352723Y-43763652D01*
X121354826Y-43793077D01*
X121346248Y-43808817D01*
X121321436Y-43820443D01*
X121319345Y-43821206D01*
X121283026Y-43829916D01*
X121232749Y-43836398D01*
X121176472Y-43840253D01*
X121122149Y-43841080D01*
X121077736Y-43838482D01*
X121056731Y-43834388D01*
X120990919Y-43803340D01*
X120942881Y-43759518D01*
X120921505Y-43723189D01*
X120914740Y-43704273D01*
X120909386Y-43681034D01*
X120905210Y-43650340D01*
X120901985Y-43609059D01*
X120899478Y-43554059D01*
X120897461Y-43482208D01*
X120895703Y-43390373D01*
X120895322Y-43366780D01*
X120890497Y-43060751D01*
X120835099Y-43057169D01*
X120779700Y-43053587D01*
X120776260Y-42949391D01*
X120772819Y-42845195D01*
X120832342Y-42845195D01*
X120891864Y-42845195D01*
X120895323Y-42747576D01*
X120898782Y-42649957D01*
X121023817Y-42574962D01*
X121148852Y-42499967D01*
X121152147Y-42672581D01*
G37*
%TD.AperFunction*%
%TA.AperFunction,EtchedComponent*%
G36*
X121945453Y-42828231D02*
G01*
X121987712Y-42831446D01*
X122021682Y-42838459D01*
X122055114Y-42850625D01*
X122077685Y-42860748D01*
X122164389Y-42913668D01*
X122235031Y-42983528D01*
X122288893Y-43069052D01*
X122325258Y-43168967D01*
X122343408Y-43281996D01*
X122345441Y-43336404D01*
X122345617Y-43416784D01*
X122022773Y-43416784D01*
X121699928Y-43416784D01*
X121708224Y-43461440D01*
X121730797Y-43533913D01*
X121768188Y-43587758D01*
X121820502Y-43623070D01*
X121887841Y-43639948D01*
X121899369Y-43640904D01*
X121942135Y-43642302D01*
X121970334Y-43638294D01*
X121992999Y-43626710D01*
X122008263Y-43614745D01*
X122036643Y-43584781D01*
X122057960Y-43551953D01*
X122059722Y-43548015D01*
X122066537Y-43531313D01*
X122073466Y-43520521D01*
X122084853Y-43515187D01*
X122105038Y-43514857D01*
X122138364Y-43519078D01*
X122189173Y-43527396D01*
X122215378Y-43531772D01*
X122273060Y-43541837D01*
X122309201Y-43551692D01*
X122325719Y-43565250D01*
X122324529Y-43586424D01*
X122307548Y-43619126D01*
X122279575Y-43662838D01*
X122223484Y-43732991D01*
X122157397Y-43784540D01*
X122078644Y-43818840D01*
X121984559Y-43837246D01*
X121928833Y-43840982D01*
X121873430Y-43841383D01*
X121821782Y-43839406D01*
X121782149Y-43835455D01*
X121771002Y-43833285D01*
X121677906Y-43798341D01*
X121598249Y-43744904D01*
X121533077Y-43674822D01*
X121483437Y-43589941D01*
X121450376Y-43492109D01*
X121434941Y-43383171D01*
X121438179Y-43264975D01*
X121439902Y-43250071D01*
X121701500Y-43250071D01*
X121892569Y-43250071D01*
X122083639Y-43250071D01*
X122083639Y-43216870D01*
X122075759Y-43176666D01*
X122055533Y-43129965D01*
X122028080Y-43086460D01*
X121998665Y-43055952D01*
X121966718Y-43040166D01*
X121925587Y-43028844D01*
X121913497Y-43027044D01*
X121852367Y-43031194D01*
X121798099Y-43056255D01*
X121753648Y-43099643D01*
X121721969Y-43158775D01*
X121709449Y-43205415D01*
X121701500Y-43250071D01*
X121439902Y-43250071D01*
X121439983Y-43249372D01*
X121463819Y-43139471D01*
X121505487Y-43042640D01*
X121563808Y-42960648D01*
X121637600Y-42895267D01*
X121700239Y-42859193D01*
X121735697Y-42844022D01*
X121768219Y-42834568D01*
X121805426Y-42829539D01*
X121854939Y-42827640D01*
X121887155Y-42827460D01*
X121945453Y-42828231D01*
G37*
%TD.AperFunction*%
%TA.AperFunction,EtchedComponent*%
G36*
X124667919Y-42827823D02*
G01*
X124738853Y-42832090D01*
X124798509Y-42840251D01*
X124833594Y-42849598D01*
X124909025Y-42888297D01*
X124964778Y-42940042D01*
X124993285Y-42986801D01*
X125000894Y-43004937D01*
X125006837Y-43024135D01*
X125011352Y-43047566D01*
X125014675Y-43078406D01*
X125017043Y-43119827D01*
X125018693Y-43175002D01*
X125019862Y-43247107D01*
X125020787Y-43339314D01*
X125020937Y-43357244D01*
X125022017Y-43459036D01*
X125023631Y-43540479D01*
X125026134Y-43605040D01*
X125029882Y-43656184D01*
X125035232Y-43697378D01*
X125042537Y-43732089D01*
X125052156Y-43763783D01*
X125064443Y-43795927D01*
X125066463Y-43800821D01*
X125068393Y-43809902D01*
X125062664Y-43815889D01*
X125045512Y-43819419D01*
X125013172Y-43821125D01*
X124961878Y-43821642D01*
X124942859Y-43821660D01*
X124880745Y-43820871D01*
X124839704Y-43818301D01*
X124817040Y-43813649D01*
X124810059Y-43806775D01*
X124805166Y-43785643D01*
X124795174Y-43758975D01*
X124780826Y-43726059D01*
X124721777Y-43768182D01*
X124636407Y-43814937D01*
X124543608Y-43840211D01*
X124447351Y-43843432D01*
X124351609Y-43824030D01*
X124346180Y-43822207D01*
X124281419Y-43788923D01*
X124225458Y-43739191D01*
X124183983Y-43678892D01*
X124167706Y-43637612D01*
X124158201Y-43567970D01*
X124162624Y-43524736D01*
X124417628Y-43524736D01*
X124426390Y-43563044D01*
X124448467Y-43603500D01*
X124477547Y-43634762D01*
X124479750Y-43636361D01*
X124515456Y-43650092D01*
X124563535Y-43654282D01*
X124614479Y-43648799D01*
X124647798Y-43638703D01*
X124702023Y-43604179D01*
X124739118Y-43553547D01*
X124758628Y-43487702D01*
X124760759Y-43415912D01*
X124757009Y-43361517D01*
X124620066Y-43394760D01*
X124558397Y-43410450D01*
X124515159Y-43423656D01*
X124485400Y-43436409D01*
X124464164Y-43450736D01*
X124450376Y-43464259D01*
X124429375Y-43493184D01*
X124418192Y-43519642D01*
X124417628Y-43524736D01*
X124162624Y-43524736D01*
X124165562Y-43496018D01*
X124187851Y-43428096D01*
X124223131Y-43370545D01*
X124259892Y-43335891D01*
X124309665Y-43308703D01*
X124378444Y-43282426D01*
X124461431Y-43258711D01*
X124524801Y-43244640D01*
X124582199Y-43232655D01*
X124640704Y-43219411D01*
X124688901Y-43207505D01*
X124694492Y-43206008D01*
X124732779Y-43194631D01*
X124753311Y-43184300D01*
X124761547Y-43170757D01*
X124762963Y-43152645D01*
X124753244Y-43099937D01*
X124725794Y-43059991D01*
X124683182Y-43036519D01*
X124682565Y-43036346D01*
X124611243Y-43024669D01*
X124546753Y-43029715D01*
X124492928Y-43050391D01*
X124453601Y-43085606D01*
X124442197Y-43104749D01*
X124429896Y-43127818D01*
X124416449Y-43138465D01*
X124393811Y-43140004D01*
X124364042Y-43136945D01*
X124314726Y-43129659D01*
X124260809Y-43119641D01*
X124241910Y-43115553D01*
X124179318Y-43101219D01*
X124213257Y-43029771D01*
X124261964Y-42952161D01*
X124325265Y-42892245D01*
X124401318Y-42851734D01*
X124407076Y-42849667D01*
X124455286Y-42838372D01*
X124519352Y-42830965D01*
X124592491Y-42827449D01*
X124667919Y-42827823D01*
G37*
%TD.AperFunction*%
%TA.AperFunction,EtchedComponent*%
G36*
X125525083Y-42708797D02*
G01*
X125525083Y-42941551D01*
X125580731Y-42899060D01*
X125658587Y-42853821D01*
X125743546Y-42829331D01*
X125831642Y-42825250D01*
X125918911Y-42841240D01*
X126001387Y-42876961D01*
X126075106Y-42932074D01*
X126085427Y-42942262D01*
X126140473Y-43014834D01*
X126180566Y-43101536D01*
X126205838Y-43198134D01*
X126216423Y-43300391D01*
X126212455Y-43404073D01*
X126194066Y-43504945D01*
X126161391Y-43598772D01*
X126114562Y-43681319D01*
X126060229Y-43742642D01*
X125989886Y-43792902D01*
X125910998Y-43827253D01*
X125829205Y-43844196D01*
X125750144Y-43842231D01*
X125715535Y-43834350D01*
X125632160Y-43796797D01*
X125554534Y-43737075D01*
X125551876Y-43734529D01*
X125501266Y-43685712D01*
X125501266Y-43753686D01*
X125501266Y-43821660D01*
X125382185Y-43821660D01*
X125263104Y-43821660D01*
X125263104Y-43324651D01*
X125521672Y-43324651D01*
X125522908Y-43382660D01*
X125526639Y-43424579D01*
X125534255Y-43458107D01*
X125547149Y-43490946D01*
X125554528Y-43506498D01*
X125592341Y-43567195D01*
X125637484Y-43606627D01*
X125693289Y-43627009D01*
X125742159Y-43631130D01*
X125784000Y-43629508D01*
X125812806Y-43622023D01*
X125839277Y-43604749D01*
X125857766Y-43588707D01*
X125894922Y-43547538D01*
X125920289Y-43499672D01*
X125935132Y-43440745D01*
X125940716Y-43366394D01*
X125939900Y-43305568D01*
X125936684Y-43245259D01*
X125931540Y-43201945D01*
X125923140Y-43168814D01*
X125910153Y-43139051D01*
X125905842Y-43130990D01*
X125865023Y-43078869D01*
X125812225Y-43043953D01*
X125752354Y-43027345D01*
X125690318Y-43030144D01*
X125631024Y-43053452D01*
X125613480Y-43065384D01*
X125572833Y-43104941D01*
X125544951Y-43153790D01*
X125528435Y-43215876D01*
X125521890Y-43295146D01*
X125521672Y-43324651D01*
X125263104Y-43324651D01*
X125263104Y-43148852D01*
X125263104Y-42476043D01*
X125394093Y-42476043D01*
X125525083Y-42476043D01*
X125525083Y-42708797D01*
G37*
%TD.AperFunction*%
%TA.AperFunction,EtchedComponent*%
G36*
X117808627Y-42714483D02*
G01*
X117808627Y-42952922D01*
X117869193Y-42905047D01*
X117948996Y-42856480D01*
X118036210Y-42829435D01*
X118127109Y-42824380D01*
X118217972Y-42841781D01*
X118256383Y-42856408D01*
X118298236Y-42877033D01*
X118333257Y-42900154D01*
X118362043Y-42927974D01*
X118385191Y-42962697D01*
X118403296Y-43006527D01*
X118416956Y-43061666D01*
X118426765Y-43130321D01*
X118433322Y-43214692D01*
X118437221Y-43316986D01*
X118439059Y-43439404D01*
X118439434Y-43532888D01*
X118439757Y-43821660D01*
X118302813Y-43821660D01*
X118165870Y-43821660D01*
X118165870Y-43475733D01*
X118165694Y-43372557D01*
X118165076Y-43290482D01*
X118163886Y-43226796D01*
X118161989Y-43178787D01*
X118159254Y-43143742D01*
X118155548Y-43118950D01*
X118150739Y-43101697D01*
X118147217Y-43093736D01*
X118115619Y-43056057D01*
X118071239Y-43033595D01*
X118019174Y-43025832D01*
X117964519Y-43032252D01*
X117912372Y-43052335D01*
X117867828Y-43085566D01*
X117839087Y-43125036D01*
X117831736Y-43140803D01*
X117825952Y-43158214D01*
X117821505Y-43180315D01*
X117818163Y-43210152D01*
X117815697Y-43250771D01*
X117813876Y-43305218D01*
X117812468Y-43376540D01*
X117811244Y-43467783D01*
X117810904Y-43497164D01*
X117807227Y-43821660D01*
X117676938Y-43821660D01*
X117546648Y-43821660D01*
X117546648Y-43148852D01*
X117546648Y-42476043D01*
X117677638Y-42476043D01*
X117808627Y-42476043D01*
X117808627Y-42714483D01*
G37*
%TD.AperFunction*%
%TA.AperFunction,EtchedComponent*%
G36*
X123036706Y-42824548D02*
G01*
X123077334Y-42832677D01*
X123118313Y-42843693D01*
X123152099Y-42855527D01*
X123171149Y-42866108D01*
X123172357Y-42867597D01*
X123170737Y-42881176D01*
X123162990Y-42911077D01*
X123151069Y-42951218D01*
X123136928Y-42995520D01*
X123122519Y-43037900D01*
X123109797Y-43072277D01*
X123100715Y-43092570D01*
X123099492Y-43094422D01*
X123087388Y-43093093D01*
X123062156Y-43083474D01*
X123053596Y-43079537D01*
X122992262Y-43060932D01*
X122936257Y-43064799D01*
X122888051Y-43090284D01*
X122850113Y-43136536D01*
X122841858Y-43152674D01*
X122833964Y-43171314D01*
X122827797Y-43190928D01*
X122823091Y-43214759D01*
X122819580Y-43246053D01*
X122816997Y-43288053D01*
X122815076Y-43344004D01*
X122813550Y-43417149D01*
X122812153Y-43510735D01*
X122812095Y-43515026D01*
X122807960Y-43821660D01*
X122672054Y-43821660D01*
X122536147Y-43821660D01*
X122536147Y-43333427D01*
X122536147Y-42845195D01*
X122661182Y-42845195D01*
X122786217Y-42845195D01*
X122786217Y-42906412D01*
X122786217Y-42967629D01*
X122836296Y-42910736D01*
X122890904Y-42859546D01*
X122946404Y-42830337D01*
X123003973Y-42821379D01*
X123036706Y-42824548D01*
G37*
%TD.AperFunction*%
%TA.AperFunction,EtchedComponent*%
G36*
X123441163Y-43690671D02*
G01*
X123441163Y-43821660D01*
X123310174Y-43821660D01*
X123179185Y-43821660D01*
X123179185Y-43690671D01*
X123179185Y-43559682D01*
X123310174Y-43559682D01*
X123441163Y-43559682D01*
X123441163Y-43690671D01*
G37*
%TD.AperFunction*%
%TA.AperFunction,EtchedComponent*%
G36*
X123965120Y-43148852D02*
G01*
X123965120Y-43821660D01*
X123834131Y-43821660D01*
X123703142Y-43821660D01*
X123703142Y-43148852D01*
X123703142Y-42476043D01*
X123834131Y-42476043D01*
X123965120Y-42476043D01*
X123965120Y-43148852D01*
G37*
%TD.AperFunction*%
%TA.AperFunction,EtchedComponent*%
%TO.C,JP8*%
G36*
X102900000Y-39300000D02*
G01*
X102400000Y-39300000D01*
X102400000Y-38700000D01*
X102900000Y-38700000D01*
X102900000Y-39300000D01*
G37*
%TD.AperFunction*%
%TA.AperFunction,EtchedComponent*%
%TO.C,JP5*%
G36*
X102900000Y-30300000D02*
G01*
X102400000Y-30300000D01*
X102400000Y-29700000D01*
X102900000Y-29700000D01*
X102900000Y-30300000D01*
G37*
%TD.AperFunction*%
%TA.AperFunction,EtchedComponent*%
%TO.C,JP2*%
G36*
X102900000Y-45300000D02*
G01*
X102400000Y-45300000D01*
X102400000Y-44700000D01*
X102900000Y-44700000D01*
X102900000Y-45300000D01*
G37*
%TD.AperFunction*%
%TA.AperFunction,EtchedComponent*%
%TO.C,JP4*%
G36*
X102900000Y-33300000D02*
G01*
X102400000Y-33300000D01*
X102400000Y-32700000D01*
X102900000Y-32700000D01*
X102900000Y-33300000D01*
G37*
%TD.AperFunction*%
%TA.AperFunction,EtchedComponent*%
%TO.C,JP9*%
G36*
X92600000Y-45300000D02*
G01*
X92100000Y-45300000D01*
X92100000Y-44700000D01*
X92600000Y-44700000D01*
X92600000Y-45300000D01*
G37*
%TD.AperFunction*%
%TA.AperFunction,EtchedComponent*%
%TO.C,JP13*%
G36*
X92600000Y-33300000D02*
G01*
X92100000Y-33300000D01*
X92100000Y-32700000D01*
X92600000Y-32700000D01*
X92600000Y-33300000D01*
G37*
%TD.AperFunction*%
%TA.AperFunction,EtchedComponent*%
%TO.C,JP7*%
G36*
X102900000Y-42300000D02*
G01*
X102400000Y-42300000D01*
X102400000Y-41700000D01*
X102900000Y-41700000D01*
X102900000Y-42300000D01*
G37*
%TD.AperFunction*%
%TA.AperFunction,EtchedComponent*%
%TO.C,JP10*%
G36*
X92600000Y-42300000D02*
G01*
X92100000Y-42300000D01*
X92100000Y-41700000D01*
X92600000Y-41700000D01*
X92600000Y-42300000D01*
G37*
%TD.AperFunction*%
%TA.AperFunction,EtchedComponent*%
%TO.C,JP14*%
G36*
X92600000Y-30300000D02*
G01*
X92100000Y-30300000D01*
X92100000Y-29700000D01*
X92600000Y-29700000D01*
X92600000Y-30300000D01*
G37*
%TD.AperFunction*%
%TA.AperFunction,EtchedComponent*%
%TO.C,JP3*%
G36*
X102900000Y-36300000D02*
G01*
X102400000Y-36300000D01*
X102400000Y-35700000D01*
X102900000Y-35700000D01*
X102900000Y-36300000D01*
G37*
%TD.AperFunction*%
%TA.AperFunction,EtchedComponent*%
%TO.C,JP11*%
G36*
X92600000Y-39300000D02*
G01*
X92100000Y-39300000D01*
X92100000Y-38700000D01*
X92600000Y-38700000D01*
X92600000Y-39300000D01*
G37*
%TD.AperFunction*%
%TA.AperFunction,EtchedComponent*%
%TO.C,JP15*%
G36*
X92600000Y-27300000D02*
G01*
X92100000Y-27300000D01*
X92100000Y-26700000D01*
X92600000Y-26700000D01*
X92600000Y-27300000D01*
G37*
%TD.AperFunction*%
%TA.AperFunction,EtchedComponent*%
%TO.C,JP12*%
G36*
X92600000Y-36300000D02*
G01*
X92100000Y-36300000D01*
X92100000Y-35700000D01*
X92600000Y-35700000D01*
X92600000Y-36300000D01*
G37*
%TD.AperFunction*%
%TA.AperFunction,EtchedComponent*%
%TO.C,JP6*%
G36*
X102900000Y-27300000D02*
G01*
X102400000Y-27300000D01*
X102400000Y-26700000D01*
X102900000Y-26700000D01*
X102900000Y-27300000D01*
G37*
%TD.AperFunction*%
%TD*%
D11*
%TO.P,U3,1,VIN+*%
%TO.N,+12V*%
X48700000Y-37940000D03*
%TO.P,U3,2,VIN-*%
%TO.N,GND*%
X53740000Y-37940000D03*
%TO.P,U3,3,VOUT+*%
%TO.N,+3V3*%
X41080000Y-58300000D03*
%TO.P,U3,4,TRIM/COM*%
%TO.N,unconnected-(U3-TRIM{slash}COM-Pad4)*%
X51240000Y-58260000D03*
%TO.P,U3,5,VOUT-*%
%TO.N,GND*%
X61400000Y-58300000D03*
%TO.P,U3,6,R.C.*%
%TO.N,unconnected-(U3-R.C.-Pad6)*%
X61440000Y-37980000D03*
%TD*%
%TO.P,U1,1,VIN+*%
%TO.N,+12V*%
X48700000Y-9940000D03*
%TO.P,U1,2,VIN-*%
%TO.N,GND*%
X53740000Y-9940000D03*
%TO.P,U1,3,VOUT+*%
%TO.N,+5V*%
X41080000Y-30300000D03*
%TO.P,U1,4,TRIM/COM*%
%TO.N,GND*%
X51240000Y-30260000D03*
%TO.P,U1,5,VOUT-*%
%TO.N,-5V*%
X61400000Y-30300000D03*
%TO.P,U1,6,R.C.*%
%TO.N,unconnected-(U1-R.C.-Pad6)*%
X61440000Y-9980000D03*
%TD*%
D12*
%TO.P,R1,1*%
%TO.N,Net-(D3-K)*%
X118310000Y-21000000D03*
D13*
%TO.P,R1,2*%
%TO.N,GND*%
X110690000Y-21000000D03*
%TD*%
D14*
%TO.P,D3,1,K*%
%TO.N,Net-(D3-K)*%
X125000000Y-16000000D03*
D15*
%TO.P,D3,2,A*%
%TO.N,+1V8*%
X127540000Y-16000000D03*
%TD*%
D16*
%TO.P,U4,1,VIN*%
%TO.N,+5V*%
X89800000Y-18320000D03*
D17*
%TO.P,U4,2,GND*%
%TO.N,GND*%
X89800000Y-15780000D03*
%TO.P,U4,3,VOUT*%
%TO.N,Net-(SW3-B)*%
X89800000Y-13240000D03*
%TD*%
D18*
%TO.P,SW3,1,A*%
%TO.N,+1V8*%
X112000000Y-14000000D03*
D12*
%TO.P,SW3,2,B*%
%TO.N,Net-(SW3-B)*%
X114500000Y-14000000D03*
%TO.P,SW3,3*%
%TO.N,N/C*%
X117000000Y-14000000D03*
%TO.P,SW3,4*%
X112000000Y-17200000D03*
%TO.P,SW3,5*%
X114500000Y-17200000D03*
%TO.P,SW3,6*%
X117000000Y-17200000D03*
%TD*%
D19*
%TO.P,J3,1,Pin_1*%
%TO.N,GND*%
X53000000Y-70000000D03*
D20*
%TO.P,J3,2,Pin_2*%
%TO.N,+12V*%
X53000000Y-72540000D03*
%TO.P,J3,3,Pin_3*%
%TO.N,unconnected-(J3-Pin_3-Pad3)*%
X53000000Y-75080000D03*
%TO.P,J3,4,Pin_4*%
%TO.N,unconnected-(J3-Pin_4-Pad4)*%
X53000000Y-77620000D03*
%TD*%
D21*
%TO.P,C8,1*%
%TO.N,Net-(SW3-B)*%
X97420000Y-15780000D03*
D22*
%TO.P,C8,2*%
%TO.N,GND*%
X102420000Y-15780000D03*
%TD*%
D23*
%TO.P,JP1,1,A*%
%TO.N,+3V3*%
X27000000Y-37000000D03*
%TO.P,JP1,2,B*%
%TO.N,Net-(JP1-B)*%
X28300000Y-37000000D03*
%TD*%
D12*
%TO.P,R3,1*%
%TO.N,Net-(D2-K)*%
X40000000Y-77810000D03*
D13*
%TO.P,R3,2*%
%TO.N,-5V*%
X40000000Y-70190000D03*
%TD*%
D23*
%TO.P,JP8,1,A*%
%TO.N,/6_c*%
X103300000Y-39000000D03*
%TO.P,JP8,2,B*%
%TO.N,unconnected-(JP8-B-Pad2)*%
X102000000Y-39000000D03*
%TD*%
D14*
%TO.P,D1,1,K*%
%TO.N,Net-(D1-K)*%
X30000000Y-82460000D03*
D15*
%TO.P,D1,2,A*%
%TO.N,+3V3*%
X30000000Y-85000000D03*
%TD*%
D12*
%TO.P,R4,1*%
%TO.N,+3V3*%
X20000000Y-75810000D03*
D13*
%TO.P,R4,2*%
%TO.N,/DIS*%
X20000000Y-68190000D03*
%TD*%
D23*
%TO.P,JP5,2,B*%
%TO.N,/RST*%
X102000000Y-30000000D03*
%TO.P,JP5,1,A*%
%TO.N,/RST_c*%
X103300000Y-30000000D03*
%TD*%
D24*
%TO.P,H4,1,1*%
%TO.N,GND*%
X135000000Y-5000000D03*
%TD*%
D25*
%TO.P,J1,1,Pin_1*%
%TO.N,/3.3v_c1*%
X136000000Y-38560000D03*
%TO.P,J1,2,Pin_2*%
%TO.N,/DIS_c*%
X132700000Y-38560000D03*
%TO.P,J1,3,Pin_3*%
%TO.N,/3.3v_c2*%
X136000000Y-37560000D03*
%TO.P,J1,4,Pin_4*%
%TO.N,/4_c*%
X132700000Y-37560000D03*
%TO.P,J1,5,Pin_5*%
%TO.N,/GND_c1*%
X136000000Y-36560000D03*
%TO.P,J1,6,Pin_6*%
%TO.N,/6_c*%
X132700000Y-36560000D03*
%TO.P,J1,7,Pin_7*%
%TO.N,/GND_c2*%
X136000000Y-35560000D03*
%TO.P,J1,8,Pin_8*%
%TO.N,/TXD_c*%
X132700000Y-35560000D03*
%TO.P,J1,9,Pin_9*%
%TO.N,/-5v_c1*%
X136000000Y-34560000D03*
%TO.P,J1,10,Pin_10*%
%TO.N,/RXD_c*%
X132700000Y-34560000D03*
%TO.P,J1,11,Pin_11*%
%TO.N,/-5v_c2*%
X136000000Y-33560000D03*
%TO.P,J1,12,Pin_12*%
%TO.N,/RST_c*%
X132700000Y-33560000D03*
%TO.P,J1,13,Pin_13*%
%TO.N,/1.8_c*%
X136000000Y-32560000D03*
%TO.P,J1,14,Pin_14*%
%TO.N,/TT_c*%
X132700000Y-32560000D03*
%TD*%
D12*
%TO.P,C5,1*%
%TO.N,GND*%
X67700000Y-12960000D03*
%TO.P,C5,2*%
%TO.N,-5V*%
X67700000Y-17960000D03*
%TD*%
D24*
%TO.P,H1,1,1*%
%TO.N,GND*%
X5000000Y-5000000D03*
%TD*%
D23*
%TO.P,JP2,2,B*%
%TO.N,/DIS*%
X102000000Y-45000000D03*
%TO.P,JP2,1,A*%
%TO.N,/DIS_c*%
X103300000Y-45000000D03*
%TD*%
D26*
%TO.P,U2,1,~{RESET}*%
%TO.N,unconnected-(U2-~{RESET}-Pad1)*%
X13200000Y-44960000D03*
%TO.P,U2,2,3.3V*%
%TO.N,unconnected-(U2-3.3V-Pad2)*%
X15740000Y-44960000D03*
%TO.P,U2,3,VIO*%
%TO.N,Net-(JP1-B)*%
X18280000Y-44960000D03*
%TO.P,U2,4,GND*%
%TO.N,GND*%
X20820000Y-44960000D03*
%TO.P,U2,5,VBUS*%
%TO.N,unconnected-(U2-VBUS-Pad5)*%
X23360000Y-44960000D03*
%TO.P,U2,6,CB0*%
%TO.N,unconnected-(U2-CB0-Pad6)*%
X23360000Y-32260000D03*
%TO.P,U2,7,TXD*%
%TO.N,/RXD*%
X20820000Y-32260000D03*
%TO.P,U2,8,~{RTS}*%
%TO.N,unconnected-(U2-~{RTS}-Pad8)*%
X18280000Y-32260000D03*
%TO.P,U2,9,RXD*%
%TO.N,/TXD*%
X15740000Y-32260000D03*
%TO.P,U2,10,~{CDS}*%
%TO.N,unconnected-(U2-~{CDS}-Pad10)*%
X13200000Y-32260000D03*
%TD*%
D23*
%TO.P,JP4,2,B*%
%TO.N,/RXD*%
X102000000Y-33000000D03*
%TO.P,JP4,1,A*%
%TO.N,/RXD_c*%
X103300000Y-33000000D03*
%TD*%
D12*
%TO.P,R5,1*%
%TO.N,+3V3*%
X27500000Y-47690000D03*
D13*
%TO.P,R5,2*%
%TO.N,/RST*%
X27500000Y-55310000D03*
%TD*%
D21*
%TO.P,C1,1*%
%TO.N,+12V*%
X25700000Y-17960000D03*
D22*
%TO.P,C1,2*%
%TO.N,GND*%
X30700000Y-17960000D03*
%TD*%
D27*
%TO.P,J2,1*%
%TO.N,+12V*%
X13000000Y-17960000D03*
D28*
%TO.P,J2,2*%
%TO.N,GND*%
X7000000Y-17960000D03*
D29*
%TO.P,J2,MP,MountPin*%
%TO.N,unconnected-(J2-MountPin-PadMP)*%
X6000000Y-13460000D03*
%TO.N,unconnected-(J2-MountPin-PadMP)_1*%
X6000000Y-22460000D03*
%TD*%
D23*
%TO.P,JP9,1,A*%
%TO.N,+3V3*%
X91700000Y-45000000D03*
%TO.P,JP9,2,B*%
%TO.N,/3.3v_c1*%
X93000000Y-45000000D03*
%TD*%
%TO.P,JP13,1,A*%
%TO.N,-5V*%
X91700000Y-33000000D03*
%TO.P,JP13,2,B*%
%TO.N,/-5v_c1*%
X93000000Y-33000000D03*
%TD*%
%TO.P,JP7,2,B*%
%TO.N,unconnected-(JP7-B-Pad2)*%
X102000000Y-42000000D03*
%TO.P,JP7,1,A*%
%TO.N,/4_c*%
X103300000Y-42000000D03*
%TD*%
D12*
%TO.P,C6,1*%
%TO.N,+3V3*%
X67700000Y-44176041D03*
%TO.P,C6,2*%
%TO.N,GND*%
X67700000Y-39176041D03*
%TD*%
D23*
%TO.P,JP10,1,A*%
%TO.N,+3V3*%
X91700000Y-42000000D03*
%TO.P,JP10,2,B*%
%TO.N,/3.3v_c2*%
X93000000Y-42000000D03*
%TD*%
%TO.P,JP14,1,A*%
%TO.N,-5V*%
X91700000Y-30000000D03*
%TO.P,JP14,2,B*%
%TO.N,/-5v_c2*%
X93000000Y-30000000D03*
%TD*%
D12*
%TO.P,R2,1*%
%TO.N,Net-(D1-K)*%
X30000000Y-77810000D03*
D13*
%TO.P,R2,2*%
%TO.N,GND*%
X30000000Y-70190000D03*
%TD*%
D23*
%TO.P,JP3,2,B*%
%TO.N,/TXD*%
X102000000Y-36000000D03*
%TO.P,JP3,1,A*%
%TO.N,/TXD_c*%
X103300000Y-36000000D03*
%TD*%
D12*
%TO.P,C4,1*%
%TO.N,+5V*%
X67700000Y-30460000D03*
%TO.P,C4,2*%
%TO.N,GND*%
X67700000Y-25460000D03*
%TD*%
D23*
%TO.P,JP11,1,A*%
%TO.N,GND*%
X91700000Y-39000000D03*
%TO.P,JP11,2,B*%
%TO.N,/GND_c1*%
X93000000Y-39000000D03*
%TD*%
D21*
%TO.P,C2,1*%
%TO.N,+5V*%
X74200000Y-27960000D03*
D22*
%TO.P,C2,2*%
%TO.N,GND*%
X79200000Y-27960000D03*
%TD*%
D23*
%TO.P,JP15,1,A*%
%TO.N,+1V8*%
X91700000Y-27000000D03*
%TO.P,JP15,2,B*%
%TO.N,/1.8_c*%
X93000000Y-27000000D03*
%TD*%
%TO.P,JP12,1,A*%
%TO.N,GND*%
X91700000Y-36000000D03*
%TO.P,JP12,2,B*%
%TO.N,/GND_c2*%
X93000000Y-36000000D03*
%TD*%
D24*
%TO.P,H2,1,1*%
%TO.N,GND*%
X5000000Y-85000000D03*
%TD*%
D30*
%TO.P,SW2,1,1*%
%TO.N,/RST*%
X7450000Y-55460000D03*
X19950000Y-55460000D03*
%TO.P,SW2,2,2*%
%TO.N,GND*%
X7450000Y-60460000D03*
X19950000Y-60460000D03*
%TD*%
D12*
%TO.P,R6,1*%
%TO.N,/TRACE_TONE*%
X102810000Y-53000000D03*
D13*
%TO.P,R6,2*%
%TO.N,GND*%
X95190000Y-53000000D03*
%TD*%
D14*
%TO.P,D2,1,K*%
%TO.N,Net-(D2-K)*%
X40000000Y-82460000D03*
D15*
%TO.P,D2,2,A*%
%TO.N,GND*%
X40000000Y-85000000D03*
%TD*%
D24*
%TO.P,H3,1,1*%
%TO.N,GND*%
X135000000Y-85000000D03*
%TD*%
D23*
%TO.P,JP6,2,B*%
%TO.N,/TRACE_TONE*%
X102000000Y-27000000D03*
%TO.P,JP6,1,A*%
%TO.N,/TT_c*%
X103300000Y-27000000D03*
%TD*%
D21*
%TO.P,C3,1*%
%TO.N,GND*%
X79200000Y-14460000D03*
D22*
%TO.P,C3,2*%
%TO.N,-5V*%
X74200000Y-14460000D03*
%TD*%
D18*
%TO.P,SW1,1,A*%
%TO.N,GND*%
X13200000Y-73460000D03*
D12*
%TO.P,SW1,2,B*%
%TO.N,/DIS*%
X10700000Y-73460000D03*
%TO.P,SW1,3*%
%TO.N,N/C*%
X8200000Y-73460000D03*
%TO.P,SW1,4*%
X13200000Y-70260000D03*
%TO.P,SW1,5*%
X10700000Y-70260000D03*
%TO.P,SW1,6*%
X8200000Y-70260000D03*
%TD*%
D21*
%TO.P,C7,1*%
%TO.N,+3V3*%
X76700000Y-44500000D03*
D22*
%TO.P,C7,2*%
%TO.N,GND*%
X76700000Y-39500000D03*
%TD*%
D24*
%TO.P,H8,1,1*%
%TO.N,GND*%
X116000000Y-85000000D03*
%TD*%
%TO.P,H7,1,1*%
%TO.N,GND*%
X84000000Y-85000000D03*
%TD*%
%TO.P,H5,1,1*%
%TO.N,GND*%
X84000000Y-53000000D03*
%TD*%
%TO.P,H6,1,1*%
%TO.N,GND*%
X116000000Y-53000000D03*
%TD*%
D31*
%TO.P,J4,HEATSINK*%
%TO.N,N/C*%
X115500000Y-76500000D03*
X115500000Y-69000000D03*
X115500000Y-61500000D03*
X108000000Y-76500000D03*
X108000000Y-69000000D03*
X108000000Y-61500000D03*
X100500000Y-69000000D03*
D32*
X99625000Y-69000000D03*
D31*
X93000000Y-76500000D03*
X93000000Y-69000000D03*
X93000000Y-61500000D03*
X85500000Y-76500000D03*
X85500000Y-69000000D03*
X85500000Y-61500000D03*
D25*
%TO.P,J4,14,Pin_14*%
%TO.N,/TT_c*%
X71750000Y-72000000D03*
%TO.P,J4,13,Pin_13*%
%TO.N,/1.8_c*%
X74250000Y-72000000D03*
%TO.P,J4,12,Pin_12*%
%TO.N,/RST_c*%
X71750000Y-71000000D03*
%TO.P,J4,11,Pin_11*%
%TO.N,/-5v_c2*%
X74250000Y-71000000D03*
%TO.P,J4,10,Pin_10*%
%TO.N,/RXD_c*%
X71750000Y-70000000D03*
%TO.P,J4,9,Pin_9*%
%TO.N,/-5v_c1*%
X74250000Y-70000000D03*
%TO.P,J4,8,Pin_8*%
%TO.N,/TXD_c*%
X71750000Y-69000000D03*
%TO.P,J4,7,Pin_7*%
%TO.N,/GND_c2*%
X74250000Y-69000000D03*
%TO.P,J4,6,Pin_6*%
%TO.N,/6_c*%
X71750000Y-68000000D03*
%TO.P,J4,5,Pin_5*%
%TO.N,/GND_c1*%
X74250000Y-68000000D03*
%TO.P,J4,4,Pin_4*%
%TO.N,/4_c*%
X71700000Y-67000000D03*
%TO.P,J4,3,Pin_3*%
%TO.N,/3.3v_c2*%
X74200000Y-67000000D03*
%TO.P,J4,2,Pin_2*%
%TO.N,/DIS_c*%
X71750000Y-66000000D03*
%TO.P,J4,1,Pin_1*%
%TO.N,/3.3v_c1*%
X74200000Y-66000000D03*
%TD*%
D33*
%TO.N,-5V*%
X89000000Y-21000000D03*
X37000000Y-37000000D03*
%TO.N,/RST*%
X86000000Y-22000000D03*
%TO.N,/TXD*%
X18000000Y-35000000D03*
%TO.N,/RXD*%
X23000000Y-35000000D03*
%TO.N,-5V*%
X37000000Y-34000000D03*
%TO.N,/TXD*%
X100000000Y-32000000D03*
%TO.N,/RXD*%
X99969669Y-29030331D03*
%TO.N,/RST*%
X100000000Y-28000000D03*
%TO.N,/1.8_c*%
X79000000Y-72000000D03*
%TO.N,/-5v_c2*%
X78500000Y-71000000D03*
%TO.N,/-5v_c1*%
X78000000Y-70000000D03*
%TO.N,/GND_c2*%
X77500000Y-69000000D03*
%TO.N,/GND_c1*%
X77000000Y-68000000D03*
%TO.N,/3.3v_c2*%
X76500000Y-67000000D03*
%TO.N,/3.3v_c1*%
X76000000Y-66000000D03*
%TO.N,+3V3*%
X91700000Y-43500000D03*
%TO.N,/3.3v_c1*%
X95000000Y-45000000D03*
%TO.N,/3.3v_c2*%
X95000000Y-42000000D03*
%TO.N,/GND_c1*%
X95000000Y-39000000D03*
%TO.N,/GND_c2*%
X95000000Y-36000000D03*
%TO.N,/-5v_c1*%
X95000000Y-33000000D03*
%TO.N,/-5v_c2*%
X95000000Y-30000000D03*
%TO.N,/3.3v_c1*%
X138000000Y-38500000D03*
%TO.N,/3.3v_c2*%
X138000000Y-37500000D03*
%TO.N,/GND_c1*%
X138000000Y-36500000D03*
%TO.N,/GND_c2*%
X138000000Y-35500000D03*
%TO.N,/-5v_c1*%
X138000000Y-34500000D03*
%TO.N,/-5v_c2*%
X138000000Y-33500000D03*
%TO.N,/1.8_c*%
X138000000Y-32500000D03*
X95000000Y-27000000D03*
%TO.N,GND*%
X91700000Y-37500000D03*
%TO.N,/TT_c*%
X70000000Y-72000000D03*
X104500000Y-27000000D03*
%TO.N,/RST_c*%
X104500000Y-30000000D03*
X70000000Y-71000000D03*
%TO.N,/RXD_c*%
X70000000Y-70000000D03*
X104500000Y-33500000D03*
%TO.N,/TXD_c*%
X70000000Y-69000000D03*
X104500000Y-36000000D03*
%TO.N,/6_c*%
X70000000Y-68000000D03*
X104500000Y-39500000D03*
%TO.N,/4_c*%
X104500000Y-42000000D03*
X70000000Y-67000000D03*
%TO.N,/DIS_c*%
X104500000Y-45000000D03*
X70000000Y-66000000D03*
%TD*%
D34*
%TO.N,+12V*%
X25700000Y-17960000D02*
X45700000Y-37960000D01*
X45700000Y-37960000D02*
X48660000Y-37960000D01*
%TO.N,+5V*%
X41040000Y-30320000D02*
X42502000Y-31782000D01*
X42502000Y-31782000D02*
X66378000Y-31782000D01*
X66378000Y-31782000D02*
X67700000Y-30460000D01*
%TO.N,-5V*%
X61360000Y-30320000D02*
X61360000Y-24300000D01*
X61360000Y-24300000D02*
X67700000Y-17960000D01*
D35*
%TO.N,+12V*%
X25700000Y-17960000D02*
X33700000Y-9960000D01*
X33700000Y-9960000D02*
X48660000Y-9960000D01*
D36*
%TO.N,-5V*%
X89000000Y-27300000D02*
X89000000Y-21000000D01*
X91700000Y-30000000D02*
X89000000Y-27300000D01*
D34*
X37000000Y-34000000D02*
X37000000Y-37000000D01*
D36*
%TO.N,/DIS*%
X20000000Y-68190000D02*
X23190000Y-65000000D01*
X23190000Y-65000000D02*
X64878680Y-65000000D01*
X64878680Y-65000000D02*
X72878680Y-57000000D01*
X72878680Y-57000000D02*
X103000000Y-57000000D01*
X106000000Y-54000000D02*
X106000000Y-51000000D01*
X103000000Y-57000000D02*
X106000000Y-54000000D01*
X106000000Y-51000000D02*
X102000000Y-47000000D01*
X102000000Y-47000000D02*
X102000000Y-45000000D01*
%TO.N,/RST*%
X86000000Y-22000000D02*
X86000000Y-40000000D01*
X86000000Y-40000000D02*
X70690000Y-55310000D01*
X70690000Y-55310000D02*
X27500000Y-55310000D01*
%TO.N,/TXD*%
X15740000Y-32740000D02*
X18000000Y-35000000D01*
X15740000Y-32260000D02*
X15740000Y-32740000D01*
%TO.N,/RXD*%
X20820000Y-32820000D02*
X23000000Y-35000000D01*
X20820000Y-32260000D02*
X20820000Y-32820000D01*
%TO.N,/TXD*%
X100000000Y-34000000D02*
X100000000Y-32000000D01*
X102000000Y-36000000D02*
X100000000Y-34000000D01*
%TO.N,/RXD*%
X102000000Y-33000000D02*
X102000000Y-32000000D01*
X102000000Y-32000000D02*
X99969669Y-29969669D01*
X99969669Y-29969669D02*
X99969669Y-29030331D01*
%TO.N,/RST*%
X102000000Y-30000000D02*
X100000000Y-28000000D01*
%TO.N,/TRACE_TONE*%
X102000000Y-27000000D02*
X99000000Y-27000000D01*
X99000000Y-27000000D02*
X99000000Y-49190000D01*
X99000000Y-49190000D02*
X102810000Y-53000000D01*
%TO.N,Net-(D2-K)*%
X40000000Y-77810000D02*
X40000000Y-82460000D01*
%TO.N,Net-(D1-K)*%
X30000000Y-77810000D02*
X30000000Y-82460000D01*
%TO.N,/DIS*%
X10700000Y-73460000D02*
X11950000Y-72210000D01*
X15980000Y-72210000D02*
X20000000Y-68190000D01*
X11950000Y-72210000D02*
X15980000Y-72210000D01*
D37*
%TO.N,/1.8_c*%
X74250000Y-72000000D02*
X79000000Y-72000000D01*
%TO.N,/-5v_c2*%
X74250000Y-71000000D02*
X78500000Y-71000000D01*
%TO.N,/-5v_c1*%
X74250000Y-70000000D02*
X78000000Y-70000000D01*
%TO.N,/GND_c2*%
X74250000Y-69000000D02*
X77500000Y-69000000D01*
%TO.N,/GND_c1*%
X74250000Y-68000000D02*
X77000000Y-68000000D01*
%TO.N,/3.3v_c2*%
X74200000Y-67000000D02*
X76500000Y-67000000D01*
%TO.N,/3.3v_c1*%
X74200000Y-66000000D02*
X76000000Y-66000000D01*
X93000000Y-45000000D02*
X95000000Y-45000000D01*
%TO.N,/3.3v_c2*%
X93000000Y-42000000D02*
X95000000Y-42000000D01*
%TO.N,/GND_c1*%
X93000000Y-39000000D02*
X95000000Y-39000000D01*
%TO.N,/1.8_c*%
X93000000Y-27000000D02*
X95000000Y-27000000D01*
%TO.N,/-5v_c2*%
X93000000Y-30000000D02*
X95000000Y-30000000D01*
%TO.N,/-5v_c1*%
X93000000Y-33000000D02*
X95000000Y-33000000D01*
%TO.N,/GND_c2*%
X93000000Y-36000000D02*
X95000000Y-36000000D01*
D36*
%TO.N,+3V3*%
X91700000Y-42000000D02*
X91700000Y-45000000D01*
D37*
%TO.N,/3.3v_c1*%
X137940000Y-38560000D02*
X138000000Y-38500000D01*
X136000000Y-38560000D02*
X137940000Y-38560000D01*
%TO.N,/3.3v_c2*%
X137940000Y-37560000D02*
X138000000Y-37500000D01*
X136000000Y-37560000D02*
X137940000Y-37560000D01*
%TO.N,/GND_c1*%
X136810000Y-36500000D02*
X138000000Y-36500000D01*
X136750000Y-36560000D02*
X136810000Y-36500000D01*
X136000000Y-36560000D02*
X136750000Y-36560000D01*
%TO.N,/GND_c2*%
X137940000Y-35560000D02*
X138000000Y-35500000D01*
X136000000Y-35560000D02*
X137940000Y-35560000D01*
%TO.N,/-5v_c1*%
X137940000Y-34560000D02*
X138000000Y-34500000D01*
X136000000Y-34560000D02*
X137940000Y-34560000D01*
%TO.N,/-5v_c2*%
X137940000Y-33560000D02*
X138000000Y-33500000D01*
X136000000Y-33560000D02*
X137940000Y-33560000D01*
%TO.N,/1.8_c*%
X137940000Y-32560000D02*
X138000000Y-32500000D01*
X136000000Y-32560000D02*
X137940000Y-32560000D01*
D36*
%TO.N,+3V3*%
X27000000Y-37000000D02*
X27000000Y-47190000D01*
X27000000Y-47190000D02*
X27500000Y-47690000D01*
D34*
%TO.N,/RST*%
X19950000Y-55460000D02*
X27350000Y-55460000D01*
X27350000Y-55460000D02*
X27500000Y-55310000D01*
D36*
%TO.N,Net-(JP1-B)*%
X18280000Y-44960000D02*
X18280000Y-43460000D01*
X18280000Y-43460000D02*
X25940000Y-35800000D01*
X25940000Y-35800000D02*
X27950000Y-35800000D01*
X27950000Y-35800000D02*
X28300000Y-36150000D01*
X28300000Y-36150000D02*
X28300000Y-37000000D01*
D34*
%TO.N,GND*%
X19950000Y-60460000D02*
X12460000Y-60460000D01*
X4000000Y-53000000D02*
X5500000Y-51500000D01*
X12460000Y-60460000D02*
X10000000Y-58000000D01*
X10000000Y-58000000D02*
X4000000Y-58000000D01*
X20820000Y-46460000D02*
X20820000Y-44960000D01*
X4000000Y-58000000D02*
X4000000Y-53000000D01*
X5500000Y-51500000D02*
X15780000Y-51500000D01*
X15780000Y-51500000D02*
X20820000Y-46460000D01*
%TO.N,/RST*%
X7450000Y-55460000D02*
X19950000Y-55460000D01*
D36*
%TO.N,+1V8*%
X112000000Y-14000000D02*
X113250000Y-15250000D01*
X113250000Y-15250000D02*
X119900000Y-15250000D01*
X119900000Y-15250000D02*
X120500000Y-14650000D01*
X120500000Y-14650000D02*
X126190000Y-14650000D01*
X126190000Y-14650000D02*
X127540000Y-16000000D01*
%TO.N,Net-(D3-K)*%
X125000000Y-16000000D02*
X123310000Y-16000000D01*
X123310000Y-16000000D02*
X118310000Y-21000000D01*
%TO.N,+1V8*%
X107000000Y-19000000D02*
X95500000Y-19000000D01*
X112000000Y-14000000D02*
X107000000Y-19000000D01*
X95500000Y-19000000D02*
X91700000Y-22800000D01*
X91700000Y-22800000D02*
X91700000Y-27000000D01*
D34*
%TO.N,Net-(SW3-B)*%
X94880000Y-13240000D02*
X95760000Y-13240000D01*
X95760000Y-13240000D02*
X98000000Y-11000000D01*
X98000000Y-11000000D02*
X112631370Y-11000000D01*
X112631370Y-11000000D02*
X114500000Y-12868630D01*
X114500000Y-12868630D02*
X114500000Y-14000000D01*
X89800000Y-13240000D02*
X94880000Y-13240000D01*
X94880000Y-13240000D02*
X97420000Y-15780000D01*
D36*
%TO.N,-5V*%
X91700000Y-30000000D02*
X91700000Y-33000000D01*
%TO.N,GND*%
X91700000Y-37500000D02*
X91700000Y-36000000D01*
X91700000Y-39000000D02*
X91700000Y-37500000D01*
D34*
%TO.N,-5V*%
X67700000Y-17960000D02*
X70700000Y-17960000D01*
X70700000Y-17960000D02*
X74200000Y-14460000D01*
%TO.N,+5V*%
X74200000Y-27960000D02*
X83840000Y-18320000D01*
X83840000Y-18320000D02*
X89800000Y-18320000D01*
X71700000Y-30460000D02*
X74200000Y-27960000D01*
X67560000Y-30320000D02*
X67700000Y-30460000D01*
D35*
%TO.N,+12V*%
X13000000Y-17960000D02*
X25700000Y-17960000D01*
D34*
%TO.N,+5V*%
X67700000Y-30460000D02*
X71700000Y-30460000D01*
D37*
%TO.N,/TT_c*%
X132700000Y-32560000D02*
X108860000Y-32560000D01*
X108860000Y-32560000D02*
X103300000Y-27000000D01*
X71750000Y-72000000D02*
X70000000Y-72000000D01*
X103300000Y-27000000D02*
X104500000Y-27000000D01*
%TO.N,/RST_c*%
X71750000Y-71000000D02*
X70000000Y-71000000D01*
X103300000Y-30000000D02*
X106860000Y-33560000D01*
X106860000Y-33560000D02*
X132700000Y-33560000D01*
X103300000Y-30000000D02*
X104500000Y-30000000D01*
%TO.N,/RXD_c*%
X103300000Y-33000000D02*
X104860000Y-34560000D01*
X104860000Y-34560000D02*
X132700000Y-34560000D01*
X104000000Y-33000000D02*
X103300000Y-33000000D01*
X104500000Y-33500000D02*
X104000000Y-33000000D01*
X71750000Y-70000000D02*
X70000000Y-70000000D01*
%TO.N,/TXD_c*%
X71750000Y-69000000D02*
X70000000Y-69000000D01*
X103300000Y-36000000D02*
X104500000Y-36000000D01*
X103740000Y-35560000D02*
X103300000Y-36000000D01*
X132700000Y-35560000D02*
X103740000Y-35560000D01*
%TO.N,/6_c*%
X103300000Y-39000000D02*
X104000000Y-39000000D01*
X71750000Y-68000000D02*
X70000000Y-68000000D01*
X104000000Y-39000000D02*
X104500000Y-39500000D01*
X132700000Y-36560000D02*
X105740000Y-36560000D01*
X105740000Y-36560000D02*
X103300000Y-39000000D01*
%TO.N,/4_c*%
X103300000Y-42000000D02*
X104500000Y-42000000D01*
X132700000Y-37560000D02*
X107740000Y-37560000D01*
X71700000Y-67000000D02*
X70000000Y-67000000D01*
X107740000Y-37560000D02*
X103300000Y-42000000D01*
%TO.N,/DIS_c*%
X109740000Y-38560000D02*
X103300000Y-45000000D01*
X103300000Y-45000000D02*
X104500000Y-45000000D01*
X132700000Y-38560000D02*
X109740000Y-38560000D01*
X71750000Y-66000000D02*
X70000000Y-66000000D01*
%TD*%
M02*
