%TF.GenerationSoftware,KiCad,Pcbnew,8.0.5-8.0.5-0~ubuntu22.04.1*%
%TF.CreationDate,2024-10-01T20:56:38-07:00*%
%TF.ProjectId,itla_driver_board_pcb,69746c61-5f64-4726-9976-65725f626f61,rev?*%
%TF.SameCoordinates,Original*%
%TF.FileFunction,Copper,L4,Bot*%
%TF.FilePolarity,Positive*%
%FSLAX46Y46*%
G04 Gerber Fmt 4.6, Leading zero omitted, Abs format (unit mm)*
G04 Created by KiCad (PCBNEW 8.0.5-8.0.5-0~ubuntu22.04.1) date 2024-10-01 20:56:38*
%MOMM*%
%LPD*%
G01*
G04 APERTURE LIST*
%TA.AperFunction,ComponentPad*%
%ADD10C,1.524000*%
%TD*%
%TA.AperFunction,ComponentPad*%
%ADD11C,1.600000*%
%TD*%
%TA.AperFunction,ComponentPad*%
%ADD12O,1.600000X1.600000*%
%TD*%
%TA.AperFunction,ComponentPad*%
%ADD13R,1.800000X1.800000*%
%TD*%
%TA.AperFunction,ComponentPad*%
%ADD14C,1.800000*%
%TD*%
%TA.AperFunction,ComponentPad*%
%ADD15R,2.000000X1.905000*%
%TD*%
%TA.AperFunction,ComponentPad*%
%ADD16O,2.000000X1.905000*%
%TD*%
%TA.AperFunction,ComponentPad*%
%ADD17R,1.600000X1.600000*%
%TD*%
%TA.AperFunction,ComponentPad*%
%ADD18R,1.700000X1.700000*%
%TD*%
%TA.AperFunction,ComponentPad*%
%ADD19O,1.700000X1.700000*%
%TD*%
%TA.AperFunction,ComponentPad*%
%ADD20R,2.400000X2.400000*%
%TD*%
%TA.AperFunction,ComponentPad*%
%ADD21C,2.400000*%
%TD*%
%TA.AperFunction,ComponentPad*%
%ADD22C,6.400000*%
%TD*%
%TA.AperFunction,ComponentPad*%
%ADD23R,2.000000X4.000000*%
%TD*%
%TA.AperFunction,ComponentPad*%
%ADD24O,2.000000X3.300000*%
%TD*%
%TA.AperFunction,ComponentPad*%
%ADD25O,3.500000X2.000000*%
%TD*%
%TA.AperFunction,ComponentPad*%
%ADD26O,2.900000X1.700000*%
%TD*%
%TA.AperFunction,ComponentPad*%
%ADD27C,2.000000*%
%TD*%
%TA.AperFunction,SMDPad,CuDef*%
%ADD28R,56.750000X20.000000*%
%TD*%
%TA.AperFunction,ViaPad*%
%ADD29C,0.600000*%
%TD*%
%TA.AperFunction,Conductor*%
%ADD30C,1.000000*%
%TD*%
%TA.AperFunction,Conductor*%
%ADD31C,0.200000*%
%TD*%
%TA.AperFunction,Conductor*%
%ADD32C,0.500000*%
%TD*%
G04 APERTURE END LIST*
D10*
%TO.P,U3,1,VIN+*%
%TO.N,+12V*%
X48700000Y-37940000D03*
%TO.P,U3,2,VIN-*%
%TO.N,GND*%
X53740000Y-37940000D03*
%TO.P,U3,3,VOUT+*%
%TO.N,+3V3*%
X41080000Y-58300000D03*
%TO.P,U3,4,TRIM/COM*%
%TO.N,unconnected-(U3-TRIM{slash}COM-Pad4)*%
X51240000Y-58260000D03*
%TO.P,U3,5,VOUT-*%
%TO.N,GND*%
X61400000Y-58300000D03*
%TO.P,U3,6,R.C.*%
%TO.N,unconnected-(U3-R.C.-Pad6)*%
X61440000Y-37980000D03*
%TD*%
%TO.P,U1,1,VIN+*%
%TO.N,+12V*%
X48700000Y-9940000D03*
%TO.P,U1,2,VIN-*%
%TO.N,GND*%
X53740000Y-9940000D03*
%TO.P,U1,3,VOUT+*%
%TO.N,+5V*%
X41080000Y-30300000D03*
%TO.P,U1,4,TRIM/COM*%
%TO.N,GND*%
X51240000Y-30260000D03*
%TO.P,U1,5,VOUT-*%
%TO.N,-5V*%
X61400000Y-30300000D03*
%TO.P,U1,6,R.C.*%
%TO.N,unconnected-(U1-R.C.-Pad6)*%
X61440000Y-9980000D03*
%TD*%
D11*
%TO.P,R1,1*%
%TO.N,Net-(D3-K)*%
X118310000Y-21000000D03*
D12*
%TO.P,R1,2*%
%TO.N,GND*%
X110690000Y-21000000D03*
%TD*%
D13*
%TO.P,D3,1,K*%
%TO.N,Net-(D3-K)*%
X125000000Y-16000000D03*
D14*
%TO.P,D3,2,A*%
%TO.N,+1V8*%
X127540000Y-16000000D03*
%TD*%
D15*
%TO.P,U4,1,VIN*%
%TO.N,+5V*%
X89800000Y-18320000D03*
D16*
%TO.P,U4,2,GND*%
%TO.N,GND*%
X89800000Y-15780000D03*
%TO.P,U4,3,VOUT*%
%TO.N,Net-(SW3-B)*%
X89800000Y-13240000D03*
%TD*%
D17*
%TO.P,SW3,1,A*%
%TO.N,+1V8*%
X112000000Y-14000000D03*
D11*
%TO.P,SW3,2,B*%
%TO.N,Net-(SW3-B)*%
X114500000Y-14000000D03*
%TO.P,SW3,3*%
%TO.N,N/C*%
X117000000Y-14000000D03*
%TO.P,SW3,4*%
X112000000Y-17200000D03*
%TO.P,SW3,5*%
X114500000Y-17200000D03*
%TO.P,SW3,6*%
X117000000Y-17200000D03*
%TD*%
D18*
%TO.P,J3,1,Pin_1*%
%TO.N,GND*%
X53000000Y-70000000D03*
D19*
%TO.P,J3,2,Pin_2*%
%TO.N,+12V*%
X53000000Y-72540000D03*
%TO.P,J3,3,Pin_3*%
%TO.N,unconnected-(J3-Pin_3-Pad3)*%
X53000000Y-75080000D03*
%TO.P,J3,4,Pin_4*%
%TO.N,unconnected-(J3-Pin_4-Pad4)*%
X53000000Y-77620000D03*
%TD*%
D20*
%TO.P,C8,1*%
%TO.N,Net-(SW3-B)*%
X97420000Y-15780000D03*
D21*
%TO.P,C8,2*%
%TO.N,GND*%
X102420000Y-15780000D03*
%TD*%
D11*
%TO.P,R3,1*%
%TO.N,Net-(D2-K)*%
X40000000Y-77810000D03*
D12*
%TO.P,R3,2*%
%TO.N,-5V*%
X40000000Y-70190000D03*
%TD*%
D13*
%TO.P,D1,1,K*%
%TO.N,Net-(D1-K)*%
X30000000Y-82460000D03*
D14*
%TO.P,D1,2,A*%
%TO.N,+3V3*%
X30000000Y-85000000D03*
%TD*%
D11*
%TO.P,R4,1*%
%TO.N,+3V3*%
X20000000Y-75810000D03*
D12*
%TO.P,R4,2*%
%TO.N,/DIS*%
X20000000Y-68190000D03*
%TD*%
D22*
%TO.P,H4,1,1*%
%TO.N,GND*%
X135000000Y-5000000D03*
%TD*%
D11*
%TO.P,C5,1*%
%TO.N,GND*%
X67700000Y-12960000D03*
%TO.P,C5,2*%
%TO.N,-5V*%
X67700000Y-17960000D03*
%TD*%
D22*
%TO.P,H1,1,1*%
%TO.N,GND*%
X5000000Y-5000000D03*
%TD*%
D11*
%TO.P,R5,1*%
%TO.N,+3V3*%
X27500000Y-47690000D03*
D12*
%TO.P,R5,2*%
%TO.N,/RST*%
X27500000Y-55310000D03*
%TD*%
D20*
%TO.P,C1,1*%
%TO.N,+12V*%
X25700000Y-17960000D03*
D21*
%TO.P,C1,2*%
%TO.N,GND*%
X30700000Y-17960000D03*
%TD*%
D23*
%TO.P,J2,1*%
%TO.N,+12V*%
X13000000Y-17960000D03*
D24*
%TO.P,J2,2*%
%TO.N,GND*%
X7000000Y-17960000D03*
D25*
%TO.P,J2,MP,MountPin*%
%TO.N,unconnected-(J2-MountPin-PadMP)*%
X6000000Y-13460000D03*
%TO.N,unconnected-(J2-MountPin-PadMP)_1*%
X6000000Y-22460000D03*
%TD*%
D11*
%TO.P,C6,1*%
%TO.N,+3V3*%
X67700000Y-44176041D03*
%TO.P,C6,2*%
%TO.N,GND*%
X67700000Y-39176041D03*
%TD*%
%TO.P,R2,1*%
%TO.N,Net-(D1-K)*%
X30000000Y-77810000D03*
D12*
%TO.P,R2,2*%
%TO.N,GND*%
X30000000Y-70190000D03*
%TD*%
D11*
%TO.P,C4,1*%
%TO.N,+5V*%
X67700000Y-30460000D03*
%TO.P,C4,2*%
%TO.N,GND*%
X67700000Y-25460000D03*
%TD*%
D20*
%TO.P,C2,1*%
%TO.N,+5V*%
X74200000Y-27960000D03*
D21*
%TO.P,C2,2*%
%TO.N,GND*%
X79200000Y-27960000D03*
%TD*%
D22*
%TO.P,H2,1,1*%
%TO.N,GND*%
X5000000Y-85000000D03*
%TD*%
D26*
%TO.P,SW2,1,1*%
%TO.N,/RST*%
X7450000Y-55460000D03*
X19950000Y-55460000D03*
%TO.P,SW2,2,2*%
%TO.N,GND*%
X7450000Y-60460000D03*
X19950000Y-60460000D03*
%TD*%
D11*
%TO.P,R6,1*%
%TO.N,/TRACE_TONE*%
X102810000Y-53000000D03*
D12*
%TO.P,R6,2*%
%TO.N,GND*%
X95190000Y-53000000D03*
%TD*%
D13*
%TO.P,D2,1,K*%
%TO.N,Net-(D2-K)*%
X40000000Y-82460000D03*
D14*
%TO.P,D2,2,A*%
%TO.N,GND*%
X40000000Y-85000000D03*
%TD*%
D22*
%TO.P,H3,1,1*%
%TO.N,GND*%
X135000000Y-85000000D03*
%TD*%
D20*
%TO.P,C3,1*%
%TO.N,GND*%
X79200000Y-14460000D03*
D21*
%TO.P,C3,2*%
%TO.N,-5V*%
X74200000Y-14460000D03*
%TD*%
D17*
%TO.P,SW1,1,A*%
%TO.N,GND*%
X13200000Y-73460000D03*
D11*
%TO.P,SW1,2,B*%
%TO.N,/DIS*%
X10700000Y-73460000D03*
%TO.P,SW1,3*%
%TO.N,N/C*%
X8200000Y-73460000D03*
%TO.P,SW1,4*%
X13200000Y-70260000D03*
%TO.P,SW1,5*%
X10700000Y-70260000D03*
%TO.P,SW1,6*%
X8200000Y-70260000D03*
%TD*%
D20*
%TO.P,C7,1*%
%TO.N,+3V3*%
X76700000Y-44500000D03*
D21*
%TO.P,C7,2*%
%TO.N,GND*%
X76700000Y-39500000D03*
%TD*%
D22*
%TO.P,H8,1,1*%
%TO.N,GND*%
X116000000Y-85000000D03*
%TD*%
%TO.P,H7,1,1*%
%TO.N,GND*%
X84000000Y-85000000D03*
%TD*%
%TO.P,H5,1,1*%
%TO.N,GND*%
X84000000Y-53000000D03*
%TD*%
%TO.P,H6,1,1*%
%TO.N,GND*%
X116000000Y-53000000D03*
%TD*%
D27*
%TO.P,J4,HEATSINK*%
%TO.N,N/C*%
X115500000Y-76500000D03*
X115500000Y-69000000D03*
X115500000Y-61500000D03*
D28*
X109625000Y-69000000D03*
D27*
X108000000Y-76500000D03*
X108000000Y-69000000D03*
X108000000Y-61500000D03*
X100500000Y-69000000D03*
X93000000Y-76500000D03*
X93000000Y-69000000D03*
X93000000Y-61500000D03*
X85500000Y-76500000D03*
X85500000Y-69000000D03*
X85500000Y-61500000D03*
%TD*%
D29*
%TO.N,-5V*%
X89000000Y-21000000D03*
X37000000Y-37000000D03*
%TO.N,/RST*%
X86000000Y-22000000D03*
%TO.N,/TXD*%
X18000000Y-35000000D03*
%TO.N,/RXD*%
X23000000Y-35000000D03*
%TO.N,-5V*%
X37000000Y-34000000D03*
%TO.N,/TXD*%
X100000000Y-32000000D03*
%TO.N,/RXD*%
X99969669Y-29030331D03*
%TO.N,/RST*%
X100000000Y-28000000D03*
%TO.N,/1.8_c*%
X79000000Y-72000000D03*
%TO.N,/-5v_c2*%
X78500000Y-71000000D03*
%TO.N,/-5v_c1*%
X78000000Y-70000000D03*
%TO.N,/GND_c2*%
X77500000Y-69000000D03*
%TO.N,/GND_c1*%
X77000000Y-68000000D03*
%TO.N,/3.3v_c2*%
X76500000Y-67000000D03*
%TO.N,/3.3v_c1*%
X76000000Y-66000000D03*
%TO.N,+3V3*%
X91700000Y-43500000D03*
%TO.N,/3.3v_c1*%
X95000000Y-45000000D03*
%TO.N,/3.3v_c2*%
X95000000Y-42000000D03*
%TO.N,/GND_c1*%
X95000000Y-39000000D03*
%TO.N,/GND_c2*%
X95000000Y-36000000D03*
%TO.N,/-5v_c1*%
X95000000Y-33000000D03*
%TO.N,/-5v_c2*%
X95000000Y-30000000D03*
%TO.N,/3.3v_c1*%
X138000000Y-38500000D03*
%TO.N,/3.3v_c2*%
X138000000Y-37500000D03*
%TO.N,/GND_c1*%
X138000000Y-36500000D03*
%TO.N,/GND_c2*%
X138000000Y-35500000D03*
%TO.N,/-5v_c1*%
X138000000Y-34500000D03*
%TO.N,/-5v_c2*%
X138000000Y-33500000D03*
%TO.N,/1.8_c*%
X138000000Y-32500000D03*
X95000000Y-27000000D03*
%TO.N,GND*%
X91700000Y-37500000D03*
%TO.N,/TT_c*%
X70000000Y-72000000D03*
X104500000Y-27000000D03*
%TO.N,/RST_c*%
X104500000Y-30000000D03*
X70000000Y-71000000D03*
%TO.N,/RXD_c*%
X70000000Y-70000000D03*
X104500000Y-33500000D03*
%TO.N,/TXD_c*%
X70000000Y-69000000D03*
X104500000Y-36000000D03*
%TO.N,/6_c*%
X70000000Y-68000000D03*
X104500000Y-39500000D03*
%TO.N,/4_c*%
X104500000Y-42000000D03*
X70000000Y-67000000D03*
%TO.N,/DIS_c*%
X104500000Y-45000000D03*
X70000000Y-66000000D03*
%TD*%
D30*
%TO.N,-5V*%
X37000000Y-34000000D02*
X57700000Y-34000000D01*
X57700000Y-34000000D02*
X61400000Y-30300000D01*
%TO.N,+12V*%
X48660000Y-37960000D02*
X54550000Y-43850000D01*
X54550000Y-43850000D02*
X54550000Y-72192081D01*
X54550000Y-72192081D02*
X54202081Y-72540000D01*
X54202081Y-72540000D02*
X53000000Y-72540000D01*
%TO.N,-5V*%
X80740000Y-21000000D02*
X89000000Y-21000000D01*
X74200000Y-14460000D02*
X80740000Y-21000000D01*
D31*
X37000000Y-37000000D02*
X37000000Y-67190000D01*
X37000000Y-67190000D02*
X40000000Y-70190000D01*
D32*
%TO.N,/RST*%
X94000000Y-22000000D02*
X86000000Y-22000000D01*
X100000000Y-28000000D02*
X94000000Y-22000000D01*
%TO.N,/TXD*%
X18000000Y-35000000D02*
X18750000Y-35750000D01*
X18750000Y-35750000D02*
X60250000Y-35750000D01*
X60250000Y-35750000D02*
X72300000Y-23700000D01*
X72300000Y-23700000D02*
X93000000Y-23700000D01*
X93000000Y-23700000D02*
X100000000Y-30700000D01*
X100000000Y-30700000D02*
X100000000Y-32000000D01*
%TO.N,/RXD*%
X99969669Y-29030331D02*
X93939338Y-23000000D01*
X93939338Y-23000000D02*
X72000000Y-23000000D01*
X72000000Y-23000000D02*
X60000000Y-35000000D01*
X60000000Y-35000000D02*
X23000000Y-35000000D01*
D30*
%TO.N,+5V*%
X41040000Y-30320000D02*
X40680000Y-30320000D01*
D31*
%TO.N,/1.8_c*%
X95000000Y-27000000D02*
X95600000Y-27600000D01*
X104651471Y-32500000D02*
X138000000Y-32500000D01*
X95600000Y-27600000D02*
X95600000Y-30600000D01*
X103551471Y-33600000D02*
X104651471Y-32500000D01*
X95600000Y-30600000D02*
X98600000Y-33600000D01*
X98600000Y-33600000D02*
X103551471Y-33600000D01*
%TO.N,/-5v_c2*%
X95000000Y-30000000D02*
X95000000Y-31000000D01*
X95000000Y-31000000D02*
X98000000Y-34000000D01*
X98000000Y-34000000D02*
X104151471Y-34000000D01*
X104151471Y-34000000D02*
X104251471Y-34100000D01*
X104251471Y-34100000D02*
X137400000Y-34100000D01*
X137400000Y-34100000D02*
X138000000Y-33500000D01*
D32*
%TO.N,+12V*%
X53000000Y-72540000D02*
X53000000Y-72000000D01*
D31*
%TO.N,/GND_c2*%
X95000000Y-36000000D02*
X96000000Y-35000000D01*
X137500000Y-35000000D02*
X138000000Y-35500000D01*
X96000000Y-35000000D02*
X137500000Y-35000000D01*
%TO.N,/GND_c1*%
X95000000Y-39000000D02*
X98000000Y-39000000D01*
X98000000Y-39000000D02*
X100000000Y-37000000D01*
X100000000Y-37000000D02*
X137500000Y-37000000D01*
X137500000Y-37000000D02*
X138000000Y-36500000D01*
%TO.N,/3.3v_c1*%
X95000000Y-45000000D02*
X98000000Y-45000000D01*
X98000000Y-45000000D02*
X104500000Y-38500000D01*
X104500000Y-38500000D02*
X138000000Y-38500000D01*
%TO.N,/3.3v_c2*%
X95000000Y-42000000D02*
X98000000Y-42000000D01*
X98000000Y-42000000D02*
X102500000Y-37500000D01*
X102500000Y-37500000D02*
X138000000Y-37500000D01*
%TO.N,/-5v_c1*%
X95000000Y-33000000D02*
X96500000Y-34500000D01*
X96500000Y-34500000D02*
X138000000Y-34500000D01*
%TD*%
M02*
