%TF.GenerationSoftware,KiCad,Pcbnew,8.0.5-8.0.5-0~ubuntu22.04.1*%
%TF.CreationDate,2024-10-01T20:56:39-07:00*%
%TF.ProjectId,itla_driver_board_pcb,69746c61-5f64-4726-9976-65725f626f61,rev?*%
%TF.SameCoordinates,Original*%
%TF.FileFunction,Soldermask,Bot*%
%TF.FilePolarity,Negative*%
%FSLAX46Y46*%
G04 Gerber Fmt 4.6, Leading zero omitted, Abs format (unit mm)*
G04 Created by KiCad (PCBNEW 8.0.5-8.0.5-0~ubuntu22.04.1) date 2024-10-01 20:56:39*
%MOMM*%
%LPD*%
G01*
G04 APERTURE LIST*
%ADD10C,1.524000*%
%ADD11C,1.600000*%
%ADD12O,1.600000X1.600000*%
%ADD13R,1.800000X1.800000*%
%ADD14C,1.800000*%
%ADD15R,2.000000X1.905000*%
%ADD16O,2.000000X1.905000*%
%ADD17R,1.600000X1.600000*%
%ADD18R,1.700000X1.700000*%
%ADD19O,1.700000X1.700000*%
%ADD20R,2.400000X2.400000*%
%ADD21C,2.400000*%
%ADD22C,6.400000*%
%ADD23R,2.000000X4.000000*%
%ADD24O,2.000000X3.300000*%
%ADD25O,3.500000X2.000000*%
%ADD26O,2.900000X1.700000*%
%ADD27C,2.000000*%
G04 APERTURE END LIST*
D10*
%TO.C,U3*%
X48700000Y-37940000D03*
X53740000Y-37940000D03*
X41080000Y-58300000D03*
X51240000Y-58260000D03*
X61400000Y-58300000D03*
X61440000Y-37980000D03*
%TD*%
%TO.C,U1*%
X48700000Y-9940000D03*
X53740000Y-9940000D03*
X41080000Y-30300000D03*
X51240000Y-30260000D03*
X61400000Y-30300000D03*
X61440000Y-9980000D03*
%TD*%
D11*
%TO.C,R1*%
X118310000Y-21000000D03*
D12*
X110690000Y-21000000D03*
%TD*%
D13*
%TO.C,D3*%
X125000000Y-16000000D03*
D14*
X127540000Y-16000000D03*
%TD*%
D15*
%TO.C,U4*%
X89800000Y-18320000D03*
D16*
X89800000Y-15780000D03*
X89800000Y-13240000D03*
%TD*%
D17*
%TO.C,SW3*%
X112000000Y-14000000D03*
D11*
X114500000Y-14000000D03*
X117000000Y-14000000D03*
X112000000Y-17200000D03*
X114500000Y-17200000D03*
X117000000Y-17200000D03*
%TD*%
D18*
%TO.C,J3*%
X53000000Y-70000000D03*
D19*
X53000000Y-72540000D03*
X53000000Y-75080000D03*
X53000000Y-77620000D03*
%TD*%
D20*
%TO.C,C8*%
X97420000Y-15780000D03*
D21*
X102420000Y-15780000D03*
%TD*%
D11*
%TO.C,R3*%
X40000000Y-77810000D03*
D12*
X40000000Y-70190000D03*
%TD*%
D13*
%TO.C,D1*%
X30000000Y-82460000D03*
D14*
X30000000Y-85000000D03*
%TD*%
D11*
%TO.C,R4*%
X20000000Y-75810000D03*
D12*
X20000000Y-68190000D03*
%TD*%
D22*
%TO.C,H4*%
X135000000Y-5000000D03*
%TD*%
D11*
%TO.C,C5*%
X67700000Y-12960000D03*
X67700000Y-17960000D03*
%TD*%
D22*
%TO.C,H1*%
X5000000Y-5000000D03*
%TD*%
D11*
%TO.C,R5*%
X27500000Y-47690000D03*
D12*
X27500000Y-55310000D03*
%TD*%
D20*
%TO.C,C1*%
X25700000Y-17960000D03*
D21*
X30700000Y-17960000D03*
%TD*%
D11*
%TO.C,J2*%
X4000000Y-17960000D03*
D23*
X13000000Y-17960000D03*
D24*
X7000000Y-17960000D03*
D25*
X6000000Y-13460000D03*
X6000000Y-22460000D03*
%TD*%
D11*
%TO.C,C6*%
X67700000Y-44176041D03*
X67700000Y-39176041D03*
%TD*%
%TO.C,R2*%
X30000000Y-77810000D03*
D12*
X30000000Y-70190000D03*
%TD*%
D11*
%TO.C,C4*%
X67700000Y-30460000D03*
X67700000Y-25460000D03*
%TD*%
D20*
%TO.C,C2*%
X74200000Y-27960000D03*
D21*
X79200000Y-27960000D03*
%TD*%
D22*
%TO.C,H2*%
X5000000Y-85000000D03*
%TD*%
D14*
%TO.C,SW2*%
X13700000Y-53460000D03*
X13700000Y-62460000D03*
D26*
X7450000Y-55460000D03*
X19950000Y-55460000D03*
X7450000Y-60460000D03*
X19950000Y-60460000D03*
%TD*%
D11*
%TO.C,R6*%
X102810000Y-53000000D03*
D12*
X95190000Y-53000000D03*
%TD*%
D13*
%TO.C,D2*%
X40000000Y-82460000D03*
D14*
X40000000Y-85000000D03*
%TD*%
D22*
%TO.C,H3*%
X135000000Y-85000000D03*
%TD*%
D20*
%TO.C,C3*%
X79200000Y-14460000D03*
D21*
X74200000Y-14460000D03*
%TD*%
D17*
%TO.C,SW1*%
X13200000Y-73460000D03*
D11*
X10700000Y-73460000D03*
X8200000Y-73460000D03*
X13200000Y-70260000D03*
X10700000Y-70260000D03*
X8200000Y-70260000D03*
%TD*%
D20*
%TO.C,C7*%
X76700000Y-44500000D03*
D21*
X76700000Y-39500000D03*
%TD*%
D22*
%TO.C,H8*%
X116000000Y-85000000D03*
%TD*%
%TO.C,H7*%
X84000000Y-85000000D03*
%TD*%
%TO.C,H5*%
X84000000Y-53000000D03*
%TD*%
%TO.C,H6*%
X116000000Y-53000000D03*
%TD*%
D27*
%TO.C,J4*%
X101000000Y-77000000D03*
X101000000Y-61000000D03*
X71000000Y-77000000D03*
X71000000Y-61000000D03*
%TD*%
M02*
